<svg xmlns="http://www.w3.org/2000/svg" width="1810" height="992" viewBox="0 0 1810 992">
<rect x="0.00" y="0.00" width="1810.00" height="992.00" rx="0.00" fill="#f7f7f5" stroke="none" stroke-width="0.00" opacity="1.00"/>
<text x="905.00" y="52.00" font-family="Helvetica,Arial,sans-serif" font-size="24" fill="#1f2937" text-anchor="middle" font-weight="800" font-style="normal" letter-spacing="1">RODINNÝ DŮM 10,0 × 8,5 m — DVOUPODLAŽNÍ S GARÁŽÍ</text>
<text x="905.00" y="78.00" font-family="Helvetica,Arial,sans-serif" font-size="13" fill="#6b7280" text-anchor="middle" font-weight="400" font-style="normal">Dispoziční studie / půdorysy  ·  měřítko 1:100  ·  návrh dle ČSN 73 4301, 73 6058, 73 4130, 73 4108</text>
<rect x="110.00" y="140.00" width="720.00" height="612.00" rx="0.00" fill="#3f3f46" stroke="none" stroke-width="0.00" opacity="1.00"/>
<rect x="131.60" y="161.60" width="676.80" height="568.80" rx="0.00" fill="#ffffff" stroke="none" stroke-width="0.00" opacity="1.00"/>
<rect x="534.80" y="161.60" width="21.60" height="568.80" rx="0.00" fill="#3f3f46" stroke="none" stroke-width="0.00" opacity="1.00"/>
<rect x="556.40" y="312.80" width="252.00" height="10.80" rx="0.00" fill="#3f3f46" stroke="none" stroke-width="0.00" opacity="1.00"/>
<rect x="131.60" y="438.80" width="403.20" height="10.80" rx="0.00" fill="#3f3f46" stroke="none" stroke-width="0.00" opacity="1.00"/>
<rect x="354.80" y="449.60" width="10.80" height="280.80" rx="0.00" fill="#3f3f46" stroke="none" stroke-width="0.00" opacity="1.00"/>
<rect x="252.20" y="449.60" width="10.80" height="91.80" rx="0.00" fill="#3f3f46" stroke="none" stroke-width="0.00" opacity="1.00"/>
<rect x="257.60" y="530.60" width="102.60" height="10.80" rx="0.00" fill="#3f3f46" stroke="none" stroke-width="0.00" opacity="1.00"/>
<rect x="216.20" y="449.60" width="10.80" height="117.00" rx="0.00" fill="#3f3f46" stroke="none" stroke-width="0.00" opacity="1.00"/>
<rect x="131.60" y="555.80" width="95.40" height="10.80" rx="0.00" fill="#3f3f46" stroke="none" stroke-width="0.00" opacity="1.00"/>
<rect x="171.20" y="140.00" width="100.80" height="21.60" rx="0.00" fill="#ffffff" stroke="none" stroke-width="0.00" opacity="1.00"/>
<line x1="171.20" y1="150.80" x2="272.00" y2="150.80" stroke="#7fb2d6" stroke-width="2.20" stroke-linecap="butt"/>
<line x1="171.20" y1="140.00" x2="272.00" y2="140.00" stroke="#3f3f46" stroke-width="1.00" stroke-linecap="butt"/>
<line x1="171.20" y1="161.60" x2="272.00" y2="161.60" stroke="#3f3f46" stroke-width="1.00" stroke-linecap="butt"/>
<rect x="369.20" y="140.00" width="100.80" height="21.60" rx="0.00" fill="#ffffff" stroke="none" stroke-width="0.00" opacity="1.00"/>
<line x1="369.20" y1="150.80" x2="470.00" y2="150.80" stroke="#7fb2d6" stroke-width="2.20" stroke-linecap="butt"/>
<line x1="369.20" y1="140.00" x2="470.00" y2="140.00" stroke="#3f3f46" stroke-width="1.00" stroke-linecap="butt"/>
<line x1="369.20" y1="161.60" x2="470.00" y2="161.60" stroke="#3f3f46" stroke-width="1.00" stroke-linecap="butt"/>
<rect x="110.00" y="240.80" width="21.60" height="115.20" rx="0.00" fill="#ffffff" stroke="none" stroke-width="0.00" opacity="1.00"/>
<line x1="120.80" y1="240.80" x2="120.80" y2="356.00" stroke="#7fb2d6" stroke-width="2.20" stroke-linecap="butt"/>
<line x1="110.00" y1="240.80" x2="110.00" y2="356.00" stroke="#3f3f46" stroke-width="1.00" stroke-linecap="butt"/>
<line x1="131.60" y1="240.80" x2="131.60" y2="356.00" stroke="#3f3f46" stroke-width="1.00" stroke-linecap="butt"/>
<rect x="110.00" y="615.20" width="21.60" height="72.00" rx="0.00" fill="#ffffff" stroke="none" stroke-width="0.00" opacity="1.00"/>
<line x1="120.80" y1="615.20" x2="120.80" y2="687.20" stroke="#7fb2d6" stroke-width="2.20" stroke-linecap="butt"/>
<line x1="110.00" y1="615.20" x2="110.00" y2="687.20" stroke="#3f3f46" stroke-width="1.00" stroke-linecap="butt"/>
<line x1="131.60" y1="615.20" x2="131.60" y2="687.20" stroke="#3f3f46" stroke-width="1.00" stroke-linecap="butt"/>
<rect x="808.40" y="492.80" width="21.60" height="72.00" rx="0.00" fill="#ffffff" stroke="none" stroke-width="0.00" opacity="1.00"/>
<line x1="819.20" y1="492.80" x2="819.20" y2="564.80" stroke="#7fb2d6" stroke-width="2.20" stroke-linecap="butt"/>
<line x1="808.40" y1="492.80" x2="808.40" y2="564.80" stroke="#3f3f46" stroke-width="1.00" stroke-linecap="butt"/>
<line x1="830.00" y1="492.80" x2="830.00" y2="564.80" stroke="#3f3f46" stroke-width="1.00" stroke-linecap="butt"/>
<rect x="808.40" y="201.20" width="21.60" height="57.60" rx="0.00" fill="#ffffff" stroke="none" stroke-width="0.00" opacity="1.00"/>
<line x1="819.20" y1="201.20" x2="819.20" y2="258.80" stroke="#7fb2d6" stroke-width="2.20" stroke-linecap="butt"/>
<line x1="808.40" y1="201.20" x2="808.40" y2="258.80" stroke="#3f3f46" stroke-width="1.00" stroke-linecap="butt"/>
<line x1="830.00" y1="201.20" x2="830.00" y2="258.80" stroke="#3f3f46" stroke-width="1.00" stroke-linecap="butt"/>
<rect x="203.60" y="728.24" width="64.80" height="25.92" rx="0.00" fill="#ffffff" stroke="none" stroke-width="0.00" opacity="1.00"/>
<line x1="203.60" y1="741.20" x2="203.60" y2="676.40" stroke="#9aa0a8" stroke-width="1.40" stroke-linecap="butt"/>
<path d="M 268.40 741.20 A 64.80 64.80 0 0 0 203.60 676.40" fill="none" stroke="#9aa0a8" stroke-width="1.00"/>
<rect x="592.40" y="730.40" width="180.00" height="21.60" rx="0.00" fill="#ffffff" stroke="none" stroke-width="0.00" opacity="1.00"/>
<line x1="592.40" y1="741.20" x2="772.40" y2="741.20" stroke="#3f3f46" stroke-width="1.60" stroke-linecap="butt"/>
<rect x="592.40" y="717.44" width="180.00" height="12.96" rx="0.00" fill="none" stroke="#9aa0a8" stroke-width="0.80" opacity="1.00" stroke-dasharray="4,3"/>
<rect x="282.80" y="436.64" width="64.80" height="15.12" rx="0.00" fill="#ffffff" stroke="none" stroke-width="0.00" opacity="1.00"/>
<line x1="347.60" y1="444.20" x2="347.60" y2="509.00" stroke="#9aa0a8" stroke-width="1.40" stroke-linecap="butt"/>
<path d="M 282.80 444.20 A 64.80 64.80 0 0 0 347.60 509.00" fill="none" stroke="#9aa0a8" stroke-width="1.00"/>
<rect x="352.64" y="633.20" width="15.12" height="64.80" rx="0.00" fill="#ffffff" stroke="none" stroke-width="0.00" opacity="1.00"/>
<line x1="360.20" y1="633.20" x2="295.40" y2="633.20" stroke="#9aa0a8" stroke-width="1.40" stroke-linecap="butt"/>
<path d="M 360.20 698.00 A 64.80 64.80 0 0 1 295.40 633.20" fill="none" stroke="#9aa0a8" stroke-width="1.00"/>
<rect x="280.64" y="528.44" width="50.40" height="15.12" rx="0.00" fill="#ffffff" stroke="none" stroke-width="0.00" opacity="1.00"/>
<line x1="331.04" y1="536.00" x2="331.04" y2="586.40" stroke="#9aa0a8" stroke-width="1.40" stroke-linecap="butt"/>
<path d="M 280.64 536.00 A 50.40 50.40 0 0 0 331.04 586.40" fill="none" stroke="#9aa0a8" stroke-width="1.00"/>
<rect x="153.20" y="436.64" width="50.40" height="15.12" rx="0.00" fill="#ffffff" stroke="none" stroke-width="0.00" opacity="1.00"/>
<line x1="153.20" y1="444.20" x2="153.20" y2="494.60" stroke="#9aa0a8" stroke-width="1.40" stroke-linecap="butt"/>
<path d="M 203.60 444.20 A 50.40 50.40 0 0 1 153.20 494.60" fill="none" stroke="#9aa0a8" stroke-width="1.00"/>
<rect x="532.64" y="186.80" width="25.92" height="57.60" rx="0.00" fill="#ffffff" stroke="none" stroke-width="0.00" opacity="1.00"/>
<line x1="545.60" y1="186.80" x2="603.20" y2="186.80" stroke="#9aa0a8" stroke-width="1.40" stroke-linecap="butt"/>
<path d="M 545.60 244.40 A 57.60 57.60 0 0 0 603.20 186.80" fill="none" stroke="#9aa0a8" stroke-width="1.00"/>
<rect x="718.40" y="310.64" width="50.40" height="15.12" rx="0.00" fill="#ffffff" stroke="none" stroke-width="0.00" opacity="1.00"/>
<line x1="718.40" y1="318.20" x2="718.40" y2="267.80" stroke="#9aa0a8" stroke-width="1.40" stroke-linecap="butt"/>
<path d="M 768.80 318.20 A 50.40 50.40 0 0 0 718.40 267.80" fill="none" stroke="#9aa0a8" stroke-width="1.00"/>
<rect x="532.64" y="608.00" width="25.92" height="57.60" rx="0.00" fill="#ffffff" stroke="none" stroke-width="0.00" opacity="1.00"/>
<line x1="545.60" y1="665.60" x2="488.00" y2="665.60" stroke="#9aa0a8" stroke-width="1.40" stroke-linecap="butt"/>
<path d="M 545.60 608.00 A 57.60 57.60 0 0 0 488.00 665.60" fill="none" stroke="#9aa0a8" stroke-width="1.00"/>
<rect x="138.80" y="168.80" width="154.80" height="39.60" rx="0.00" fill="none" stroke="#c4c8cf" stroke-width="1.10" opacity="1.00"/>
<circle cx="171.20" cy="188.60" r="12.96" fill="none" stroke="#c4c8cf" stroke-width="0.90"/>
<circle cx="211.52" cy="179.96" r="7.20" fill="none" stroke="#c4c8cf" stroke-width="0.80"/>
<circle cx="231.68" cy="179.96" r="7.20" fill="none" stroke="#c4c8cf" stroke-width="0.80"/>
<circle cx="211.52" cy="197.24" r="7.20" fill="none" stroke="#c4c8cf" stroke-width="0.80"/>
<circle cx="231.68" cy="197.24" r="7.20" fill="none" stroke="#c4c8cf" stroke-width="0.80"/>
<rect x="311.60" y="215.60" width="100.80" height="64.80" rx="3.60" fill="none" stroke="#c4c8cf" stroke-width="1.10" opacity="1.00"/>
<rect x="308.00" y="233.60" width="2.88" height="28.80" rx="0.00" fill="#c4c8cf" stroke="none" stroke-width="0.00" opacity="1.00"/>
<rect x="416.00" y="233.60" width="2.88" height="28.80" rx="0.00" fill="#c4c8cf" stroke="none" stroke-width="0.00" opacity="1.00"/>
<rect x="344.00" y="212.00" width="36.00" height="2.88" rx="0.00" fill="#c4c8cf" stroke="none" stroke-width="0.00" opacity="1.00"/>
<rect x="344.00" y="284.00" width="36.00" height="2.88" rx="0.00" fill="#c4c8cf" stroke="none" stroke-width="0.00" opacity="1.00"/>
<rect x="142.40" y="359.60" width="144.00" height="64.80" rx="7.20" fill="none" stroke="#c4c8cf" stroke-width="1.10" opacity="1.00"/>
<rect x="149.60" y="366.80" width="129.60" height="46.80" rx="5.76" fill="none" stroke="#c4c8cf" stroke-width="0.80" opacity="1.00"/>
<rect x="509.60" y="323.60" width="20.16" height="100.80" rx="0.00" fill="none" stroke="#c4c8cf" stroke-width="1.10" opacity="1.00"/>
<rect x="437.60" y="352.40" width="50.40" height="61.20" rx="7.20" fill="none" stroke="#c4c8cf" stroke-width="1.10" opacity="1.00"/>
<rect x="624.80" y="366.80" width="115.20" height="316.80" rx="25.20" fill="#eef1f4" stroke="#c4c8cf" stroke-width="1.30" opacity="1.00"/>
<rect x="637.76" y="461.84" width="89.28" height="126.72" rx="14.40" fill="none" stroke="#c4c8cf" stroke-width="1.00" opacity="1.00"/>
<text x="682.40" y="529.20" font-family="Helvetica,Arial,sans-serif" font-size="10" fill="#aeb4bc" text-anchor="middle" font-weight="600" font-style="normal">AUTO</text>
<rect x="620.48" y="392.00" width="8.64" height="28.80" rx="0.00" fill="#c4c8cf" stroke="none" stroke-width="0.00" opacity="1.00"/>
<rect x="735.68" y="392.00" width="8.64" height="28.80" rx="0.00" fill="#c4c8cf" stroke="none" stroke-width="0.00" opacity="1.00"/>
<rect x="620.48" y="629.60" width="8.64" height="28.80" rx="0.00" fill="#c4c8cf" stroke="none" stroke-width="0.00" opacity="1.00"/>
<rect x="735.68" y="629.60" width="8.64" height="28.80" rx="0.00" fill="#c4c8cf" stroke="none" stroke-width="0.00" opacity="1.00"/>
<rect x="732.80" y="194.00" width="36.00" height="36.00" rx="0.00" fill="none" stroke="#c4c8cf" stroke-width="1.10" opacity="1.00"/>
<circle cx="750.80" cy="212.00" r="8.64" fill="none" stroke="#c4c8cf" stroke-width="0.90"/>
<rect x="320.24" y="460.40" width="25.92" height="36.00" rx="8.64" fill="none" stroke="#c4c8cf" stroke-width="0.90" opacity="1.00"/>
<rect x="135.20" y="586.40" width="28.80" height="136.80" rx="0.00" fill="none" stroke="#c4c8cf" stroke-width="1.10" opacity="1.00"/>
<line x1="135.20" y1="632.00" x2="164.00" y2="632.00" stroke="#c4c8cf" stroke-width="0.60" stroke-linecap="butt"/>
<line x1="135.20" y1="677.60" x2="164.00" y2="677.60" stroke="#c4c8cf" stroke-width="0.60" stroke-linecap="butt"/>
<text x="333.20" y="295.20" font-family="Helvetica,Arial,sans-serif" font-size="14" fill="#1f2937" text-anchor="middle" font-weight="600" font-style="normal">Obývací pokoj</text>
<text x="333.20" y="312.20" font-family="Helvetica,Arial,sans-serif" font-size="14" fill="#1f2937" text-anchor="middle" font-weight="600" font-style="normal">+ kuchyně + jídelna</text>
<text x="333.20" y="331.20" font-family="Helvetica,Arial,sans-serif" font-size="13" fill="#4b5563" text-anchor="middle" font-weight="400" font-style="normal">21,6 m²</text>
<text x="286.40" y="658.30" font-family="Helvetica,Arial,sans-serif" font-size="13" fill="#1f2937" text-anchor="middle" font-weight="600" font-style="normal">Zádveří + chodba</text>
<text x="286.40" y="677.30" font-family="Helvetica,Arial,sans-serif" font-size="12" fill="#4b5563" text-anchor="middle" font-weight="400" font-style="normal">8,9 m²</text>
<text x="308.72" y="493.42" font-family="Helvetica,Arial,sans-serif" font-size="11" fill="#1f2937" text-anchor="middle" font-weight="600" font-style="normal">WC</text>
<text x="308.72" y="512.42" font-family="Helvetica,Arial,sans-serif" font-size="10" fill="#4b5563" text-anchor="middle" font-weight="400" font-style="normal">1,4 m²</text>
<text x="174.80" y="507.10" font-family="Helvetica,Arial,sans-serif" font-size="11" fill="#1f2937" text-anchor="middle" font-weight="600" font-style="normal">Spíž</text>
<text x="174.80" y="526.10" font-family="Helvetica,Arial,sans-serif" font-size="10" fill="#4b5563" text-anchor="middle" font-weight="400" font-style="normal">1,7 m²</text>
<text x="449.84" y="597.10" font-family="Helvetica,Arial,sans-serif" font-size="13" fill="#1f2937" text-anchor="middle" font-weight="600" font-style="normal">Schodiště</text>
<text x="449.84" y="616.10" font-family="Helvetica,Arial,sans-serif" font-size="12" fill="#4b5563" text-anchor="middle" font-weight="400" font-style="normal">9,2 m²</text>
<text x="682.40" y="546.70" font-family="Helvetica,Arial,sans-serif" font-size="14" fill="#1f2937" text-anchor="middle" font-weight="600" font-style="normal">Garáž</text>
<text x="682.40" y="565.70" font-family="Helvetica,Arial,sans-serif" font-size="13" fill="#4b5563" text-anchor="middle" font-weight="400" font-style="normal">19,8 m²</text>
<text x="682.40" y="232.20" font-family="Helvetica,Arial,sans-serif" font-size="11" fill="#1f2937" text-anchor="middle" font-weight="600" font-style="normal">Technická</text>
<text x="682.40" y="249.20" font-family="Helvetica,Arial,sans-serif" font-size="11" fill="#1f2937" text-anchor="middle" font-weight="600" font-style="normal">místnost</text>
<text x="682.40" y="268.20" font-family="Helvetica,Arial,sans-serif" font-size="10" fill="#4b5563" text-anchor="middle" font-weight="400" font-style="normal">7,4 m²</text>
<line x1="455.24" y1="730.40" x2="531.20" y2="730.40" stroke="#8a909a" stroke-width="0.90" stroke-linecap="butt"/>
<line x1="455.24" y1="706.80" x2="531.20" y2="706.80" stroke="#8a909a" stroke-width="0.90" stroke-linecap="butt"/>
<line x1="455.24" y1="683.20" x2="531.20" y2="683.20" stroke="#8a909a" stroke-width="0.90" stroke-linecap="butt"/>
<line x1="455.24" y1="659.60" x2="531.20" y2="659.60" stroke="#8a909a" stroke-width="0.90" stroke-linecap="butt"/>
<line x1="455.24" y1="636.00" x2="531.20" y2="636.00" stroke="#8a909a" stroke-width="0.90" stroke-linecap="butt"/>
<line x1="455.24" y1="612.40" x2="531.20" y2="612.40" stroke="#8a909a" stroke-width="0.90" stroke-linecap="butt"/>
<line x1="455.24" y1="588.80" x2="531.20" y2="588.80" stroke="#8a909a" stroke-width="0.90" stroke-linecap="butt"/>
<line x1="455.24" y1="565.20" x2="531.20" y2="565.20" stroke="#8a909a" stroke-width="0.90" stroke-linecap="butt"/>
<line x1="455.24" y1="541.60" x2="531.20" y2="541.60" stroke="#8a909a" stroke-width="0.90" stroke-linecap="butt"/>
<line x1="455.24" y1="518.00" x2="531.20" y2="518.00" stroke="#8a909a" stroke-width="0.90" stroke-linecap="butt"/>
<line x1="369.20" y1="518.00" x2="445.16" y2="518.00" stroke="#8a909a" stroke-width="0.90" stroke-linecap="butt"/>
<line x1="369.20" y1="541.60" x2="445.16" y2="541.60" stroke="#8a909a" stroke-width="0.90" stroke-linecap="butt"/>
<line x1="369.20" y1="565.20" x2="445.16" y2="565.20" stroke="#8a909a" stroke-width="0.90" stroke-linecap="butt"/>
<line x1="369.20" y1="588.80" x2="445.16" y2="588.80" stroke="#8a909a" stroke-width="0.90" stroke-linecap="butt"/>
<line x1="369.20" y1="612.40" x2="445.16" y2="612.40" stroke="#8a909a" stroke-width="0.90" stroke-linecap="butt"/>
<line x1="369.20" y1="636.00" x2="445.16" y2="636.00" stroke="#8a909a" stroke-width="0.90" stroke-linecap="butt"/>
<line x1="369.20" y1="659.60" x2="445.16" y2="659.60" stroke="#8a909a" stroke-width="0.90" stroke-linecap="butt"/>
<line x1="369.20" y1="683.20" x2="445.16" y2="683.20" stroke="#8a909a" stroke-width="0.90" stroke-linecap="butt"/>
<line x1="369.20" y1="706.80" x2="445.16" y2="706.80" stroke="#8a909a" stroke-width="0.90" stroke-linecap="butt"/>
<line x1="369.20" y1="730.40" x2="445.16" y2="730.40" stroke="#8a909a" stroke-width="0.90" stroke-linecap="butt"/>
<rect x="445.16" y="518.00" width="10.08" height="212.40" rx="0.00" fill="none" stroke="#8a909a" stroke-width="0.90" opacity="1.00"/>
<line x1="492.50" y1="708.80" x2="492.50" y2="528.80" stroke="#5b6370" stroke-width="1.30" stroke-linecap="butt"/>
<path d="M 485.30 541.04 L 492.50 525.20 L 499.70 541.04" fill="none" stroke="#5b6370" stroke-width="1.30"/>
<circle cx="492.50" cy="708.80" r="2.20" fill="#5b6370" stroke="#5b6370" stroke-width="1.00"/>
<line x1="110.00" y1="100.40" x2="830.00" y2="100.40" stroke="#6b7280" stroke-width="0.80" stroke-linecap="butt"/>
<line x1="110.00" y1="96.40" x2="110.00" y2="104.40" stroke="#6b7280" stroke-width="0.80" stroke-linecap="butt"/>
<line x1="830.00" y1="96.40" x2="830.00" y2="104.40" stroke="#6b7280" stroke-width="0.80" stroke-linecap="butt"/>
<text x="470.00" y="96.40" font-family="Helvetica,Arial,sans-serif" font-size="12" fill="#6b7280" text-anchor="middle" font-weight="400" font-style="normal">10,00 m</text>
<line x1="70.40" y1="140.00" x2="70.40" y2="752.00" stroke="#6b7280" stroke-width="0.80" stroke-linecap="butt"/>
<line x1="66.40" y1="140.00" x2="74.40" y2="140.00" stroke="#6b7280" stroke-width="0.80" stroke-linecap="butt"/>
<line x1="66.40" y1="752.00" x2="74.40" y2="752.00" stroke="#6b7280" stroke-width="0.80" stroke-linecap="butt"/>
<text x="64.40" y="446.00" font-family="Helvetica,Arial,sans-serif" font-size="12" fill="#6b7280" text-anchor="middle" transform="rotate(-90 64.40 446.00)">8,50 m</text>
<line x1="556.40" y1="784.40" x2="808.40" y2="784.40" stroke="#6b7280" stroke-width="0.80" stroke-linecap="butt"/>
<line x1="556.40" y1="780.40" x2="556.40" y2="788.40" stroke="#6b7280" stroke-width="0.80" stroke-linecap="butt"/>
<line x1="808.40" y1="780.40" x2="808.40" y2="788.40" stroke="#6b7280" stroke-width="0.80" stroke-linecap="butt"/>
<text x="682.40" y="780.40" font-family="Helvetica,Arial,sans-serif" font-size="12" fill="#6b7280" text-anchor="middle" font-weight="400" font-style="normal">3,50</text>
<text x="470.00" y="806.00" font-family="Helvetica,Arial,sans-serif" font-size="18" fill="#1f2937" text-anchor="middle" font-weight="700" font-style="normal" letter-spacing="2">PŘÍZEMÍ  (1. NP)</text>
<rect x="1000.00" y="140.00" width="720.00" height="612.00" rx="0.00" fill="#3f3f46" stroke="none" stroke-width="0.00" opacity="1.00"/>
<rect x="1021.60" y="161.60" width="676.80" height="568.80" rx="0.00" fill="#ffffff" stroke="none" stroke-width="0.00" opacity="1.00"/>
<rect x="1424.80" y="161.60" width="21.60" height="568.80" rx="0.00" fill="#3f3f46" stroke="none" stroke-width="0.00" opacity="1.00"/>
<rect x="1244.80" y="161.60" width="10.80" height="568.80" rx="0.00" fill="#3f3f46" stroke="none" stroke-width="0.00" opacity="1.00"/>
<rect x="1021.60" y="395.60" width="228.60" height="10.80" rx="0.00" fill="#3f3f46" stroke="none" stroke-width="0.00" opacity="1.00"/>
<rect x="1435.60" y="334.40" width="262.80" height="10.80" rx="0.00" fill="#3f3f46" stroke="none" stroke-width="0.00" opacity="1.00"/>
<rect x="1250.20" y="257.00" width="185.40" height="10.80" rx="0.00" fill="#3f3f46" stroke="none" stroke-width="0.00" opacity="1.00"/>
<rect x="1082.80" y="140.00" width="100.80" height="21.60" rx="0.00" fill="#ffffff" stroke="none" stroke-width="0.00" opacity="1.00"/>
<line x1="1082.80" y1="150.80" x2="1183.60" y2="150.80" stroke="#7fb2d6" stroke-width="2.20" stroke-linecap="butt"/>
<line x1="1082.80" y1="140.00" x2="1183.60" y2="140.00" stroke="#3f3f46" stroke-width="1.00" stroke-linecap="butt"/>
<line x1="1082.80" y1="161.60" x2="1183.60" y2="161.60" stroke="#3f3f46" stroke-width="1.00" stroke-linecap="butt"/>
<rect x="1529.20" y="140.00" width="86.40" height="21.60" rx="0.00" fill="#ffffff" stroke="none" stroke-width="0.00" opacity="1.00"/>
<line x1="1529.20" y1="150.80" x2="1615.60" y2="150.80" stroke="#7fb2d6" stroke-width="2.20" stroke-linecap="butt"/>
<line x1="1529.20" y1="140.00" x2="1615.60" y2="140.00" stroke="#3f3f46" stroke-width="1.00" stroke-linecap="butt"/>
<line x1="1529.20" y1="161.60" x2="1615.60" y2="161.60" stroke="#3f3f46" stroke-width="1.00" stroke-linecap="butt"/>
<rect x="1000.00" y="233.60" width="21.60" height="86.40" rx="0.00" fill="#ffffff" stroke="none" stroke-width="0.00" opacity="1.00"/>
<line x1="1010.80" y1="233.60" x2="1010.80" y2="320.00" stroke="#7fb2d6" stroke-width="2.20" stroke-linecap="butt"/>
<line x1="1000.00" y1="233.60" x2="1000.00" y2="320.00" stroke="#3f3f46" stroke-width="1.00" stroke-linecap="butt"/>
<line x1="1021.60" y1="233.60" x2="1021.60" y2="320.00" stroke="#3f3f46" stroke-width="1.00" stroke-linecap="butt"/>
<rect x="1000.00" y="514.40" width="21.60" height="115.20" rx="0.00" fill="#ffffff" stroke="none" stroke-width="0.00" opacity="1.00"/>
<line x1="1010.80" y1="514.40" x2="1010.80" y2="629.60" stroke="#7fb2d6" stroke-width="2.20" stroke-linecap="butt"/>
<line x1="1000.00" y1="514.40" x2="1000.00" y2="629.60" stroke="#3f3f46" stroke-width="1.00" stroke-linecap="butt"/>
<line x1="1021.60" y1="514.40" x2="1021.60" y2="629.60" stroke="#3f3f46" stroke-width="1.00" stroke-linecap="butt"/>
<rect x="1698.40" y="208.40" width="21.60" height="64.80" rx="0.00" fill="#ffffff" stroke="none" stroke-width="0.00" opacity="1.00"/>
<line x1="1709.20" y1="208.40" x2="1709.20" y2="273.20" stroke="#7fb2d6" stroke-width="2.20" stroke-linecap="butt"/>
<line x1="1698.40" y1="208.40" x2="1698.40" y2="273.20" stroke="#3f3f46" stroke-width="1.00" stroke-linecap="butt"/>
<line x1="1720.00" y1="208.40" x2="1720.00" y2="273.20" stroke="#3f3f46" stroke-width="1.00" stroke-linecap="butt"/>
<rect x="1698.40" y="478.40" width="21.60" height="115.20" rx="0.00" fill="#ffffff" stroke="none" stroke-width="0.00" opacity="1.00"/>
<line x1="1709.20" y1="478.40" x2="1709.20" y2="593.60" stroke="#7fb2d6" stroke-width="2.20" stroke-linecap="butt"/>
<line x1="1698.40" y1="478.40" x2="1698.40" y2="593.60" stroke="#3f3f46" stroke-width="1.00" stroke-linecap="butt"/>
<line x1="1720.00" y1="478.40" x2="1720.00" y2="593.60" stroke="#3f3f46" stroke-width="1.00" stroke-linecap="butt"/>
<rect x="1064.80" y="730.40" width="93.60" height="21.60" rx="0.00" fill="#ffffff" stroke="none" stroke-width="0.00" opacity="1.00"/>
<line x1="1064.80" y1="741.20" x2="1158.40" y2="741.20" stroke="#7fb2d6" stroke-width="2.20" stroke-linecap="butt"/>
<line x1="1064.80" y1="730.40" x2="1158.40" y2="730.40" stroke="#3f3f46" stroke-width="1.00" stroke-linecap="butt"/>
<line x1="1064.80" y1="752.00" x2="1158.40" y2="752.00" stroke="#3f3f46" stroke-width="1.00" stroke-linecap="butt"/>
<rect x="1540.00" y="730.40" width="100.80" height="21.60" rx="0.00" fill="#ffffff" stroke="none" stroke-width="0.00" opacity="1.00"/>
<line x1="1540.00" y1="741.20" x2="1640.80" y2="741.20" stroke="#7fb2d6" stroke-width="2.20" stroke-linecap="butt"/>
<line x1="1540.00" y1="730.40" x2="1640.80" y2="730.40" stroke="#3f3f46" stroke-width="1.00" stroke-linecap="butt"/>
<line x1="1540.00" y1="752.00" x2="1640.80" y2="752.00" stroke="#3f3f46" stroke-width="1.00" stroke-linecap="butt"/>
<rect x="1307.44" y="730.40" width="64.80" height="21.60" rx="0.00" fill="#ffffff" stroke="none" stroke-width="0.00" opacity="1.00"/>
<line x1="1307.44" y1="741.20" x2="1372.24" y2="741.20" stroke="#7fb2d6" stroke-width="2.20" stroke-linecap="butt"/>
<line x1="1307.44" y1="730.40" x2="1372.24" y2="730.40" stroke="#3f3f46" stroke-width="1.00" stroke-linecap="butt"/>
<line x1="1307.44" y1="752.00" x2="1372.24" y2="752.00" stroke="#3f3f46" stroke-width="1.00" stroke-linecap="butt"/>
<rect x="1242.64" y="320.00" width="15.12" height="57.60" rx="0.00" fill="#ffffff" stroke="none" stroke-width="0.00" opacity="1.00"/>
<line x1="1250.20" y1="320.00" x2="1192.60" y2="320.00" stroke="#9aa0a8" stroke-width="1.40" stroke-linecap="butt"/>
<path d="M 1250.20 377.60 A 57.60 57.60 0 0 1 1192.60 320.00" fill="none" stroke="#9aa0a8" stroke-width="1.00"/>
<rect x="1242.64" y="406.40" width="15.12" height="50.40" rx="0.00" fill="#ffffff" stroke="none" stroke-width="0.00" opacity="1.00"/>
<line x1="1250.20" y1="456.80" x2="1199.80" y2="456.80" stroke="#9aa0a8" stroke-width="1.40" stroke-linecap="butt"/>
<path d="M 1250.20 406.40 A 50.40 50.40 0 0 0 1199.80 456.80" fill="none" stroke="#9aa0a8" stroke-width="1.00"/>
<rect x="1313.20" y="254.84" width="50.40" height="15.12" rx="0.00" fill="#ffffff" stroke="none" stroke-width="0.00" opacity="1.00"/>
<line x1="1313.20" y1="262.40" x2="1313.20" y2="312.80" stroke="#9aa0a8" stroke-width="1.40" stroke-linecap="butt"/>
<path d="M 1363.60 262.40 A 50.40 50.40 0 0 1 1313.20 312.80" fill="none" stroke="#9aa0a8" stroke-width="1.00"/>
<rect x="1422.64" y="273.20" width="25.92" height="50.40" rx="0.00" fill="#ffffff" stroke="none" stroke-width="0.00" opacity="1.00"/>
<line x1="1435.60" y1="273.20" x2="1486.00" y2="273.20" stroke="#9aa0a8" stroke-width="1.40" stroke-linecap="butt"/>
<path d="M 1435.60 323.60 A 50.40 50.40 0 0 0 1486.00 273.20" fill="none" stroke="#9aa0a8" stroke-width="1.00"/>
<rect x="1422.64" y="377.60" width="25.92" height="57.60" rx="0.00" fill="#ffffff" stroke="none" stroke-width="0.00" opacity="1.00"/>
<line x1="1435.60" y1="435.20" x2="1493.20" y2="435.20" stroke="#9aa0a8" stroke-width="1.40" stroke-linecap="butt"/>
<path d="M 1435.60 377.60 A 57.60 57.60 0 0 1 1493.20 435.20" fill="none" stroke="#9aa0a8" stroke-width="1.00"/>
<rect x="1039.60" y="179.60" width="72.00" height="144.00" rx="3.60" fill="none" stroke="#c4c8cf" stroke-width="1.10" opacity="1.00"/>
<rect x="1045.36" y="185.36" width="60.48" height="25.20" rx="3.60" fill="none" stroke="#c4c8cf" stroke-width="0.90" opacity="1.00"/>
<rect x="1183.60" y="172.40" width="54.00" height="126.00" rx="0.00" fill="none" stroke="#c4c8cf" stroke-width="1.10" opacity="1.00"/>
<line x1="1183.60" y1="214.40" x2="1237.60" y2="214.40" stroke="#c4c8cf" stroke-width="0.60" stroke-linecap="butt"/>
<line x1="1183.60" y1="256.40" x2="1237.60" y2="256.40" stroke="#c4c8cf" stroke-width="0.60" stroke-linecap="butt"/>
<rect x="1039.60" y="579.20" width="72.00" height="144.00" rx="3.60" fill="none" stroke="#c4c8cf" stroke-width="1.10" opacity="1.00"/>
<rect x="1045.36" y="692.24" width="60.48" height="25.20" rx="3.60" fill="none" stroke="#c4c8cf" stroke-width="0.90" opacity="1.00"/>
<rect x="1183.60" y="478.40" width="54.00" height="108.00" rx="0.00" fill="none" stroke="#c4c8cf" stroke-width="1.10" opacity="1.00"/>
<line x1="1183.60" y1="514.40" x2="1237.60" y2="514.40" stroke="#c4c8cf" stroke-width="0.60" stroke-linecap="butt"/>
<line x1="1183.60" y1="550.40" x2="1237.60" y2="550.40" stroke="#c4c8cf" stroke-width="0.60" stroke-linecap="butt"/>
<rect x="1543.60" y="370.40" width="144.00" height="158.40" rx="3.60" fill="none" stroke="#c4c8cf" stroke-width="1.10" opacity="1.00"/>
<rect x="1549.36" y="376.16" width="132.48" height="25.20" rx="3.60" fill="none" stroke="#c4c8cf" stroke-width="0.90" opacity="1.00"/>
<rect x="1453.60" y="600.80" width="234.00" height="43.20" rx="0.00" fill="none" stroke="#c4c8cf" stroke-width="1.10" opacity="1.00"/>
<line x1="1492.60" y1="600.80" x2="1492.60" y2="644.00" stroke="#c4c8cf" stroke-width="0.60" stroke-linecap="butt"/>
<line x1="1531.60" y1="600.80" x2="1531.60" y2="644.00" stroke="#c4c8cf" stroke-width="0.60" stroke-linecap="butt"/>
<line x1="1570.60" y1="600.80" x2="1570.60" y2="644.00" stroke="#c4c8cf" stroke-width="0.60" stroke-linecap="butt"/>
<line x1="1609.60" y1="600.80" x2="1609.60" y2="644.00" stroke="#c4c8cf" stroke-width="0.60" stroke-linecap="butt"/>
<line x1="1648.60" y1="600.80" x2="1648.60" y2="644.00" stroke="#c4c8cf" stroke-width="0.60" stroke-linecap="butt"/>
<rect x="1489.60" y="168.80" width="122.40" height="48.24" rx="7.20" fill="none" stroke="#c4c8cf" stroke-width="1.10" opacity="1.00"/>
<circle cx="1597.60" cy="192.56" r="3.60" fill="none" stroke="#c4c8cf" stroke-width="0.80"/>
<rect x="1657.36" y="226.40" width="30.24" height="39.60" rx="4.32" fill="none" stroke="#c4c8cf" stroke-width="0.90" opacity="1.00"/>
<rect x="1657.36" y="286.16" width="28.80" height="36.00" rx="8.64" fill="none" stroke="#c4c8cf" stroke-width="0.90" opacity="1.00"/>
<rect x="1259.20" y="172.40" width="162.00" height="36.00" rx="0.00" fill="none" stroke="#c4c8cf" stroke-width="1.10" opacity="1.00"/>
<line x1="1299.70" y1="172.40" x2="1299.70" y2="208.40" stroke="#c4c8cf" stroke-width="0.60" stroke-linecap="butt"/>
<line x1="1340.20" y1="172.40" x2="1340.20" y2="208.40" stroke="#c4c8cf" stroke-width="0.60" stroke-linecap="butt"/>
<line x1="1380.70" y1="172.40" x2="1380.70" y2="208.40" stroke="#c4c8cf" stroke-width="0.60" stroke-linecap="butt"/>
<text x="1133.20" y="282.10" font-family="Helvetica,Arial,sans-serif" font-size="13" fill="#1f2937" text-anchor="middle" font-weight="600" font-style="normal">Pokoj</text>
<text x="1133.20" y="301.10" font-family="Helvetica,Arial,sans-serif" font-size="12" fill="#4b5563" text-anchor="middle" font-weight="400" font-style="normal">10,0 m²</text>
<text x="1133.20" y="571.90" font-family="Helvetica,Arial,sans-serif" font-size="13" fill="#1f2937" text-anchor="middle" font-weight="600" font-style="normal">Pokoj</text>
<text x="1133.20" y="590.90" font-family="Helvetica,Arial,sans-serif" font-size="12" fill="#4b5563" text-anchor="middle" font-weight="400" font-style="normal">14,0 m²</text>
<text x="1340.20" y="212.80" font-family="Helvetica,Arial,sans-serif" font-size="11" fill="#1f2937" text-anchor="middle" font-weight="600" font-style="normal">Šatna</text>
<text x="1340.20" y="231.80" font-family="Helvetica,Arial,sans-serif" font-size="10" fill="#4b5563" text-anchor="middle" font-weight="400" font-style="normal">3,3 m²</text>
<text x="1339.84" y="359.50" font-family="Helvetica,Arial,sans-serif" font-size="13" fill="#1f2937" text-anchor="middle" font-weight="600" font-style="normal">Chodba</text>
<text x="1339.84" y="378.50" font-family="Helvetica,Arial,sans-serif" font-size="12" fill="#4b5563" text-anchor="middle" font-weight="400" font-style="normal">6,0 m²</text>
<text x="1339.84" y="597.10" font-family="Helvetica,Arial,sans-serif" font-size="13" fill="#1f2937" text-anchor="middle" font-weight="600" font-style="normal">Schodiště</text>
<text x="1339.84" y="616.10" font-family="Helvetica,Arial,sans-serif" font-size="12" fill="#4b5563" text-anchor="middle" font-weight="400" font-style="normal">8,8 m²</text>
<text x="1572.40" y="243.00" font-family="Helvetica,Arial,sans-serif" font-size="12" fill="#1f2937" text-anchor="middle" font-weight="600" font-style="normal">Koupelna</text>
<text x="1572.40" y="260.00" font-family="Helvetica,Arial,sans-serif" font-size="12" fill="#1f2937" text-anchor="middle" font-weight="600" font-style="normal">+ WC</text>
<text x="1572.40" y="279.00" font-family="Helvetica,Arial,sans-serif" font-size="11" fill="#4b5563" text-anchor="middle" font-weight="400" font-style="normal">8,4 m²</text>
<text x="1572.40" y="541.30" font-family="Helvetica,Arial,sans-serif" font-size="14" fill="#1f2937" text-anchor="middle" font-weight="600" font-style="normal">Ložnice</text>
<text x="1572.40" y="560.30" font-family="Helvetica,Arial,sans-serif" font-size="13" fill="#4b5563" text-anchor="middle" font-weight="400" font-style="normal">18,7 m²</text>
<line x1="1345.24" y1="730.40" x2="1421.20" y2="730.40" stroke="#8a909a" stroke-width="0.90" stroke-linecap="butt"/>
<line x1="1345.24" y1="708.00" x2="1421.20" y2="708.00" stroke="#8a909a" stroke-width="0.90" stroke-linecap="butt"/>
<line x1="1345.24" y1="685.60" x2="1421.20" y2="685.60" stroke="#8a909a" stroke-width="0.90" stroke-linecap="butt"/>
<line x1="1345.24" y1="663.20" x2="1421.20" y2="663.20" stroke="#8a909a" stroke-width="0.90" stroke-linecap="butt"/>
<line x1="1345.24" y1="640.80" x2="1421.20" y2="640.80" stroke="#8a909a" stroke-width="0.90" stroke-linecap="butt"/>
<line x1="1345.24" y1="618.40" x2="1421.20" y2="618.40" stroke="#8a909a" stroke-width="0.90" stroke-linecap="butt"/>
<line x1="1345.24" y1="596.00" x2="1421.20" y2="596.00" stroke="#8a909a" stroke-width="0.90" stroke-linecap="butt"/>
<line x1="1345.24" y1="573.60" x2="1421.20" y2="573.60" stroke="#8a909a" stroke-width="0.90" stroke-linecap="butt"/>
<line x1="1345.24" y1="551.20" x2="1421.20" y2="551.20" stroke="#8a909a" stroke-width="0.90" stroke-linecap="butt"/>
<line x1="1345.24" y1="528.80" x2="1421.20" y2="528.80" stroke="#8a909a" stroke-width="0.90" stroke-linecap="butt"/>
<line x1="1259.20" y1="528.80" x2="1335.16" y2="528.80" stroke="#8a909a" stroke-width="0.90" stroke-linecap="butt"/>
<line x1="1259.20" y1="551.20" x2="1335.16" y2="551.20" stroke="#8a909a" stroke-width="0.90" stroke-linecap="butt"/>
<line x1="1259.20" y1="573.60" x2="1335.16" y2="573.60" stroke="#8a909a" stroke-width="0.90" stroke-linecap="butt"/>
<line x1="1259.20" y1="596.00" x2="1335.16" y2="596.00" stroke="#8a909a" stroke-width="0.90" stroke-linecap="butt"/>
<line x1="1259.20" y1="618.40" x2="1335.16" y2="618.40" stroke="#8a909a" stroke-width="0.90" stroke-linecap="butt"/>
<line x1="1259.20" y1="640.80" x2="1335.16" y2="640.80" stroke="#8a909a" stroke-width="0.90" stroke-linecap="butt"/>
<line x1="1259.20" y1="663.20" x2="1335.16" y2="663.20" stroke="#8a909a" stroke-width="0.90" stroke-linecap="butt"/>
<line x1="1259.20" y1="685.60" x2="1335.16" y2="685.60" stroke="#8a909a" stroke-width="0.90" stroke-linecap="butt"/>
<line x1="1259.20" y1="708.00" x2="1335.16" y2="708.00" stroke="#8a909a" stroke-width="0.90" stroke-linecap="butt"/>
<line x1="1259.20" y1="730.40" x2="1335.16" y2="730.40" stroke="#8a909a" stroke-width="0.90" stroke-linecap="butt"/>
<rect x="1335.16" y="528.80" width="10.08" height="201.60" rx="0.00" fill="none" stroke="#8a909a" stroke-width="0.90" opacity="1.00"/>
<line x1="1297.90" y1="539.60" x2="1297.90" y2="708.80" stroke="#5b6370" stroke-width="1.30" stroke-linecap="butt"/>
<path d="M 1290.70 694.40 L 1297.90 710.24 L 1305.10 694.40" fill="none" stroke="#5b6370" stroke-width="1.30"/>
<line x1="1259.20" y1="460.40" x2="1421.20" y2="460.40" stroke="#8a909a" stroke-width="1.40" stroke-linecap="butt"/>
<line x1="1000.00" y1="100.40" x2="1720.00" y2="100.40" stroke="#6b7280" stroke-width="0.80" stroke-linecap="butt"/>
<line x1="1000.00" y1="96.40" x2="1000.00" y2="104.40" stroke="#6b7280" stroke-width="0.80" stroke-linecap="butt"/>
<line x1="1720.00" y1="96.40" x2="1720.00" y2="104.40" stroke="#6b7280" stroke-width="0.80" stroke-linecap="butt"/>
<text x="1360.00" y="96.40" font-family="Helvetica,Arial,sans-serif" font-size="12" fill="#6b7280" text-anchor="middle" font-weight="400" font-style="normal">10,00 m</text>
<line x1="960.40" y1="140.00" x2="960.40" y2="752.00" stroke="#6b7280" stroke-width="0.80" stroke-linecap="butt"/>
<line x1="956.40" y1="140.00" x2="964.40" y2="140.00" stroke="#6b7280" stroke-width="0.80" stroke-linecap="butt"/>
<line x1="956.40" y1="752.00" x2="964.40" y2="752.00" stroke="#6b7280" stroke-width="0.80" stroke-linecap="butt"/>
<text x="954.40" y="446.00" font-family="Helvetica,Arial,sans-serif" font-size="12" fill="#6b7280" text-anchor="middle" transform="rotate(-90 954.40 446.00)">8,50 m</text>
<text x="1360.00" y="806.00" font-family="Helvetica,Arial,sans-serif" font-size="18" fill="#1f2937" text-anchor="middle" font-weight="700" font-style="normal" letter-spacing="2">PATRO  (2. NP)</text>
<rect x="110.00" y="847.00" width="1610.00" height="110.00" rx="8.00" fill="#ffffff" stroke="#e4e4e7" stroke-width="1.00" opacity="1.00"/>
<text x="130.00" y="873.00" font-family="Helvetica,Arial,sans-serif" font-size="13" fill="#1f2937" text-anchor="start" font-weight="700" font-style="normal">LEGENDA</text>
<rect x="250.00" y="864.00" width="34.00" height="10.00" rx="0.00" fill="#3f3f46" stroke="none" stroke-width="0.00" opacity="1.00"/>
<text x="294.00" y="875.00" font-family="Helvetica,Arial,sans-serif" font-size="12" fill="#1f2937" text-anchor="start" font-weight="400" font-style="normal">nosné / dělící zdivo</text>
<rect x="500.00" y="864.00" width="34.00" height="10.00" rx="0.00" fill="#ffffff" stroke="#3f3f46" stroke-width="0.80" opacity="1.00"/>
<line x1="500.00" y1="869.00" x2="534.00" y2="869.00" stroke="#7fb2d6" stroke-width="2.20" stroke-linecap="butt"/>
<text x="544.00" y="875.00" font-family="Helvetica,Arial,sans-serif" font-size="12" fill="#1f2937" text-anchor="start" font-weight="400" font-style="normal">okno</text>
<path d="M 750 874 A 22 22 0 0 0 772 852" fill="none" stroke="#9aa0a8" stroke-width="1.00"/>
<line x1="750.00" y1="874.00" x2="750.00" y2="852.00" stroke="#9aa0a8" stroke-width="1.40" stroke-linecap="butt"/>
<text x="794.00" y="875.00" font-family="Helvetica,Arial,sans-serif" font-size="12" fill="#1f2937" text-anchor="start" font-weight="400" font-style="normal">dveře</text>
<rect x="1000.00" y="862.00" width="30.00" height="14.00" rx="3.00" fill="none" stroke="#c4c8cf" stroke-width="1.10" opacity="1.00"/>
<text x="1044.00" y="875.00" font-family="Helvetica,Arial,sans-serif" font-size="12" fill="#1f2937" text-anchor="start" font-weight="400" font-style="normal">zařízení / nábytek</text>
<text x="130.00" y="899.00" font-family="Helvetica,Arial,sans-serif" font-size="11" fill="#52525b" text-anchor="start" font-weight="400" font-style="normal">Plochy přízemí (užitné): obývací pokoj s kuchyní 21,6 · zádveří+chodba 8,9 · spíž 1,7 · WC 1,4 · schodiště 9,2 · technická m. 7,4 · garáž 19,8 m²</text>
<text x="130.00" y="915.00" font-family="Helvetica,Arial,sans-serif" font-size="11" fill="#52525b" text-anchor="start" font-weight="400" font-style="normal">Plochy patra (užitné): ložnice 18,7 · pokoj 14,0 · pokoj 10,0 · koupelna s WC 8,4 · šatna 3,3 · chodba 6,0 · schodiště 8,8 m²</text>
<text x="130.00" y="931.00" font-family="Helvetica,Arial,sans-serif" font-size="11" fill="#52525b" text-anchor="start" font-weight="400" font-style="normal">Konstrukce: obvodové zdivo 300 mm, vnitřní nosná zeď 300 mm, příčky 150 mm · konstrukční výška podlaží 3,0 m · garáž pro 1 osobní automobil (stání 3,5 × 5,65 m).</text>
<text x="130.00" y="947.00" font-family="Helvetica,Arial,sans-serif" font-size="11" fill="#52525b" text-anchor="start" font-weight="400" font-style="normal">Schodiště dvouramenné, šířka ramene 0,95 m, 17 stupňů 176 × 270 mm (2h+b = 622 mm) dle ČSN 73 4130 · světlá výška obytných místností min. 2,6 m.</text>
</svg>