<svg xmlns="http://www.w3.org/2000/svg" width="1315" height="1593.0" viewBox="0 0 1315 1593.0">
<rect x="0.00" y="0.00" width="1315.00" height="1593.00" rx="0.00" fill="#f7f7f5" stroke="none" stroke-width="0.00" opacity="1.00"/>
<text x="657.50" y="46.00" font-family="Helvetica,Arial,sans-serif" font-size="22" fill="#1f2937" text-anchor="middle" font-weight="800" font-style="normal" letter-spacing="1">ŘADOVÝ DŮM — TROJDOMEK  ·  jednotka 8,5 × 10,0 m (85 m²)  ·  2 NP</text>
<text x="657.50" y="70.00" font-family="Helvetica,Arial,sans-serif" font-size="12" fill="#6b7280" text-anchor="middle" font-weight="400" font-style="normal">Ekonomické řešení: sdílené mezibytové stěny, kompaktní tvar, stohované instalace, venkovní stání  ·  měřítko 1:100  ·  ČSN 73 4301, 73 4130, 73 4108, 73 0532</text>
<rect x="95.00" y="135.00" width="510.00" height="600.00" rx="0.00" fill="#3f3f46" stroke="none" stroke-width="0.00" opacity="1.00"/>
<rect x="113.00" y="153.00" width="474.00" height="564.00" rx="0.00" fill="#ffffff" stroke="none" stroke-width="0.00" opacity="1.00"/>
<line x1="104.00" y1="141.00" x2="104.00" y2="729.00" stroke="#6f6f78" stroke-width="0.80" stroke-linecap="butt" stroke-dasharray="5,4"/>
<line x1="596.00" y1="141.00" x2="596.00" y2="729.00" stroke="#6f6f78" stroke-width="0.80" stroke-linecap="butt" stroke-dasharray="5,4"/>
<rect x="113.00" y="369.00" width="474.00" height="9.00" rx="0.00" fill="#3f3f46" stroke="none" stroke-width="0.00" opacity="1.00"/>
<rect x="416.00" y="373.50" width="9.00" height="343.50" rx="0.00" fill="#3f3f46" stroke="none" stroke-width="0.00" opacity="1.00"/>
<rect x="113.00" y="540.00" width="474.00" height="9.00" rx="0.00" fill="#3f3f46" stroke="none" stroke-width="0.00" opacity="1.00"/>
<rect x="183.50" y="373.50" width="9.00" height="171.00" rx="0.00" fill="#3f3f46" stroke="none" stroke-width="0.00" opacity="1.00"/>
<rect x="113.00" y="454.50" width="75.00" height="9.00" rx="0.00" fill="#3f3f46" stroke="none" stroke-width="0.00" opacity="1.00"/>
<rect x="257.00" y="549.00" width="9.00" height="168.00" rx="0.00" fill="#3f3f46" stroke="none" stroke-width="0.00" opacity="1.00"/>
<rect x="290.00" y="135.00" width="156.00" height="18.00" rx="0.00" fill="#ffffff" stroke="none" stroke-width="0.00" opacity="1.00"/>
<line x1="290.00" y1="141.30" x2="446.00" y2="141.30" stroke="#7fb2d6" stroke-width="2.20" stroke-linecap="butt"/>
<line x1="290.00" y1="146.70" x2="446.00" y2="146.70" stroke="#7fb2d6" stroke-width="2.20" stroke-linecap="butt"/>
<line x1="290.00" y1="135.00" x2="446.00" y2="135.00" stroke="#3f3f46" stroke-width="1.00" stroke-linecap="butt"/>
<line x1="290.00" y1="153.00" x2="446.00" y2="153.00" stroke="#3f3f46" stroke-width="1.00" stroke-linecap="butt"/>
<rect x="473.00" y="135.00" width="90.00" height="18.00" rx="0.00" fill="#ffffff" stroke="none" stroke-width="0.00" opacity="1.00"/>
<line x1="473.00" y1="144.00" x2="563.00" y2="144.00" stroke="#7fb2d6" stroke-width="2.20" stroke-linecap="butt"/>
<line x1="473.00" y1="135.00" x2="563.00" y2="135.00" stroke="#3f3f46" stroke-width="1.00" stroke-linecap="butt"/>
<line x1="473.00" y1="153.00" x2="563.00" y2="153.00" stroke="#3f3f46" stroke-width="1.00" stroke-linecap="butt"/>
<rect x="143.00" y="717.00" width="72.00" height="18.00" rx="0.00" fill="#ffffff" stroke="none" stroke-width="0.00" opacity="1.00"/>
<line x1="143.00" y1="726.00" x2="215.00" y2="726.00" stroke="#7fb2d6" stroke-width="2.20" stroke-linecap="butt"/>
<line x1="143.00" y1="717.00" x2="215.00" y2="717.00" stroke="#3f3f46" stroke-width="1.00" stroke-linecap="butt"/>
<line x1="143.00" y1="735.00" x2="215.00" y2="735.00" stroke="#3f3f46" stroke-width="1.00" stroke-linecap="butt"/>
<rect x="311.00" y="717.00" width="48.00" height="18.00" rx="0.00" fill="#ffffff" stroke="none" stroke-width="0.00" opacity="1.00"/>
<line x1="311.00" y1="726.00" x2="359.00" y2="726.00" stroke="#7fb2d6" stroke-width="2.20" stroke-linecap="butt"/>
<line x1="311.00" y1="717.00" x2="359.00" y2="717.00" stroke="#3f3f46" stroke-width="1.00" stroke-linecap="butt"/>
<line x1="311.00" y1="735.00" x2="359.00" y2="735.00" stroke="#3f3f46" stroke-width="1.00" stroke-linecap="butt"/>
<rect x="477.50" y="715.20" width="57.00" height="21.60" rx="0.00" fill="#ffffff" stroke="none" stroke-width="0.00" opacity="1.00"/>
<line x1="477.50" y1="726.00" x2="477.50" y2="669.00" stroke="#9aa0a8" stroke-width="1.40" stroke-linecap="butt"/>
<path d="M 534.50 726.00 A 57.00 57.00 0 0 0 477.50 669.00" fill="none" stroke="#9aa0a8" stroke-width="1.00"/>
<rect x="414.20" y="606.00" width="12.60" height="54.00" rx="0.00" fill="#ffffff" stroke="none" stroke-width="0.00" opacity="1.00"/>
<line x1="420.50" y1="606.00" x2="366.50" y2="606.00" stroke="#9aa0a8" stroke-width="1.40" stroke-linecap="butt"/>
<path d="M 420.50 660.00 A 54.00 54.00 0 0 1 366.50 606.00" fill="none" stroke="#9aa0a8" stroke-width="1.00"/>
<rect x="414.20" y="426.00" width="12.60" height="54.00" rx="0.00" fill="#ffffff" stroke="none" stroke-width="0.00" opacity="1.00"/>
<line x1="420.50" y1="480.00" x2="366.50" y2="480.00" stroke="#9aa0a8" stroke-width="1.40" stroke-linecap="butt"/>
<path d="M 420.50 426.00 A 54.00 54.00 0 0 0 366.50 480.00" fill="none" stroke="#9aa0a8" stroke-width="1.00"/>
<rect x="266.00" y="367.20" width="66.00" height="12.60" rx="0.00" fill="#ffffff" stroke="none" stroke-width="0.00" opacity="1.00"/>
<line x1="266.00" y1="373.50" x2="266.00" y2="439.50" stroke="#9aa0a8" stroke-width="1.40" stroke-linecap="butt"/>
<path d="M 332.00 373.50 A 66.00 66.00 0 0 1 266.00 439.50" fill="none" stroke="#9aa0a8" stroke-width="1.00"/>
<rect x="146.00" y="538.20" width="54.00" height="12.60" rx="0.00" fill="#ffffff" stroke="none" stroke-width="0.00" opacity="1.00"/>
<line x1="146.00" y1="544.50" x2="146.00" y2="490.50" stroke="#9aa0a8" stroke-width="1.40" stroke-linecap="butt"/>
<path d="M 200.00 544.50 A 54.00 54.00 0 0 0 146.00 490.50" fill="none" stroke="#9aa0a8" stroke-width="1.00"/>
<rect x="305.00" y="538.20" width="48.00" height="12.60" rx="0.00" fill="#ffffff" stroke="none" stroke-width="0.00" opacity="1.00"/>
<line x1="353.00" y1="544.50" x2="353.00" y2="496.50" stroke="#9aa0a8" stroke-width="1.40" stroke-linecap="butt"/>
<path d="M 305.00 544.50 A 48.00 48.00 0 0 1 353.00 496.50" fill="none" stroke="#9aa0a8" stroke-width="1.00"/>
<rect x="131.00" y="367.20" width="42.00" height="12.60" rx="0.00" fill="#ffffff" stroke="none" stroke-width="0.00" opacity="1.00"/>
<line x1="131.00" y1="373.50" x2="131.00" y2="331.50" stroke="#9aa0a8" stroke-width="1.40" stroke-linecap="butt"/>
<path d="M 173.00 373.50 A 42.00 42.00 0 0 0 131.00 331.50" fill="none" stroke="#9aa0a8" stroke-width="1.00"/>
<rect x="181.70" y="480.00" width="12.60" height="42.00" rx="0.00" fill="#ffffff" stroke="none" stroke-width="0.00" opacity="1.00"/>
<line x1="188.00" y1="480.00" x2="146.00" y2="480.00" stroke="#9aa0a8" stroke-width="1.40" stroke-linecap="butt"/>
<path d="M 188.00 522.00 A 42.00 42.00 0 0 1 146.00 480.00" fill="none" stroke="#9aa0a8" stroke-width="1.00"/>
<rect x="119.00" y="162.00" width="69.00" height="171.00" rx="0.00" fill="none" stroke="#c4c8cf" stroke-width="1.10" opacity="1.00"/>
<circle cx="153.50" cy="189.00" r="9.60" fill="none" stroke="#c4c8cf" stroke-width="0.90"/>
<circle cx="146.30" cy="223.80" r="5.40" fill="none" stroke="#c4c8cf" stroke-width="0.80"/>
<circle cx="160.70" cy="223.80" r="5.40" fill="none" stroke="#c4c8cf" stroke-width="0.80"/>
<circle cx="146.30" cy="238.20" r="5.40" fill="none" stroke="#c4c8cf" stroke-width="0.80"/>
<circle cx="160.70" cy="238.20" r="5.40" fill="none" stroke="#c4c8cf" stroke-width="0.80"/>
<rect x="248.00" y="204.00" width="78.00" height="54.00" rx="3.00" fill="none" stroke="#c4c8cf" stroke-width="1.10" opacity="1.00"/>
<rect x="245.00" y="217.80" width="2.40" height="26.40" rx="0.00" fill="#c4c8cf" stroke="none" stroke-width="0.00" opacity="1.00"/>
<rect x="329.00" y="217.80" width="2.40" height="26.40" rx="0.00" fill="#c4c8cf" stroke="none" stroke-width="0.00" opacity="1.00"/>
<rect x="270.20" y="201.00" width="33.60" height="2.40" rx="0.00" fill="#c4c8cf" stroke="none" stroke-width="0.00" opacity="1.00"/>
<rect x="270.20" y="261.00" width="33.60" height="2.40" rx="0.00" fill="#c4c8cf" stroke="none" stroke-width="0.00" opacity="1.00"/>
<rect x="395.00" y="288.00" width="174.00" height="60.00" rx="6.00" fill="none" stroke="#c4c8cf" stroke-width="1.10" opacity="1.00"/>
<rect x="401.00" y="294.00" width="162.00" height="45.00" rx="4.80" fill="none" stroke="#c4c8cf" stroke-width="0.80" opacity="1.00"/>
<rect x="557.00" y="561.00" width="24.00" height="150.00" rx="0.00" fill="none" stroke="#c4c8cf" stroke-width="1.10" opacity="1.00"/>
<line x1="557.00" y1="591.00" x2="581.00" y2="591.00" stroke="#c4c8cf" stroke-width="0.60" stroke-linecap="butt"/>
<line x1="557.00" y1="621.00" x2="581.00" y2="621.00" stroke="#c4c8cf" stroke-width="0.60" stroke-linecap="butt"/>
<line x1="557.00" y1="651.00" x2="581.00" y2="651.00" stroke="#c4c8cf" stroke-width="0.60" stroke-linecap="butt"/>
<line x1="557.00" y1="681.00" x2="581.00" y2="681.00" stroke="#c4c8cf" stroke-width="0.60" stroke-linecap="butt"/>
<rect x="293.00" y="634.20" width="30.00" height="33.60" rx="0.00" fill="none" stroke="#c4c8cf" stroke-width="1.10" opacity="1.00"/>
<circle cx="308.00" cy="651.00" r="7.80" fill="none" stroke="#c4c8cf" stroke-width="0.90"/>
<rect x="329.00" y="634.20" width="30.00" height="33.60" rx="0.00" fill="none" stroke="#c4c8cf" stroke-width="1.10" opacity="1.00"/>
<circle cx="344.00" cy="651.00" r="7.80" fill="none" stroke="#c4c8cf" stroke-width="0.90"/>
<rect x="139.40" y="483.00" width="21.60" height="30.00" rx="7.20" fill="none" stroke="#c4c8cf" stroke-width="0.90" opacity="1.00"/>
<rect x="122.00" y="669.00" width="72.00" height="24.00" rx="0.00" fill="none" stroke="#c4c8cf" stroke-width="1.10" opacity="1.00"/>
<circle cx="158.00" cy="711.00" r="9.60" fill="none" stroke="#c4c8cf" stroke-width="0.90"/>
<text x="350.00" y="264.00" font-family="Helvetica,Arial,sans-serif" font-size="13" fill="#1f2937" text-anchor="middle" font-weight="600" font-style="normal">Obývací pokoj + kuchyně + jídelna</text>
<text x="350.00" y="281.00" font-family="Helvetica,Arial,sans-serif" font-size="12" fill="#4b5563" text-anchor="middle" font-weight="400" font-style="normal">28,0 m²</text>
<text x="308.00" y="456.00" font-family="Helvetica,Arial,sans-serif" font-size="13" fill="#1f2937" text-anchor="middle" font-weight="600" font-style="normal">Chodba</text>
<text x="308.00" y="473.00" font-family="Helvetica,Arial,sans-serif" font-size="12" fill="#4b5563" text-anchor="middle" font-weight="400" font-style="normal">9,0 m²</text>
<text x="150.20" y="420.00" font-family="Helvetica,Arial,sans-serif" font-size="10" fill="#1f2937" text-anchor="middle" font-weight="600" font-style="normal">Spíž</text>
<text x="150.20" y="437.00" font-family="Helvetica,Arial,sans-serif" font-size="9" fill="#4b5563" text-anchor="middle" font-weight="400" font-style="normal">1,7 m²</text>
<text x="150.20" y="501.00" font-family="Helvetica,Arial,sans-serif" font-size="10" fill="#1f2937" text-anchor="middle" font-weight="600" font-style="normal">WC</text>
<text x="150.20" y="518.00" font-family="Helvetica,Arial,sans-serif" font-size="9" fill="#4b5563" text-anchor="middle" font-weight="400" font-style="normal">1,7 m²</text>
<text x="503.00" y="459.00" font-family="Helvetica,Arial,sans-serif" font-size="13" fill="#1f2937" text-anchor="middle" font-weight="600" font-style="normal">Schodiště</text>
<text x="503.00" y="476.00" font-family="Helvetica,Arial,sans-serif" font-size="12" fill="#4b5563" text-anchor="middle" font-weight="400" font-style="normal">7,0 m²</text>
<text x="185.00" y="636.00" font-family="Helvetica,Arial,sans-serif" font-size="12" fill="#1f2937" text-anchor="middle" font-weight="600" font-style="normal">Pracovna</text>
<text x="185.00" y="653.00" font-family="Helvetica,Arial,sans-serif" font-size="11" fill="#4b5563" text-anchor="middle" font-weight="400" font-style="normal">6,6 m²</text>
<text x="341.00" y="628.00" font-family="Helvetica,Arial,sans-serif" font-size="11" fill="#1f2937" text-anchor="middle" font-weight="600" font-style="normal">Technická</text>
<text x="341.00" y="644.00" font-family="Helvetica,Arial,sans-serif" font-size="11" fill="#1f2937" text-anchor="middle" font-weight="600" font-style="normal">místnost</text>
<text x="341.00" y="661.00" font-family="Helvetica,Arial,sans-serif" font-size="10" fill="#4b5563" text-anchor="middle" font-weight="400" font-style="normal">6,7 m²</text>
<text x="506.00" y="636.00" font-family="Helvetica,Arial,sans-serif" font-size="12" fill="#1f2937" text-anchor="middle" font-weight="600" font-style="normal">Zádveří</text>
<text x="506.00" y="653.00" font-family="Helvetica,Arial,sans-serif" font-size="11" fill="#4b5563" text-anchor="middle" font-weight="400" font-style="normal">7,6 m²</text>
<line x1="510.20" y1="540.00" x2="581.00" y2="540.00" stroke="#8a909a" stroke-width="0.90" stroke-linecap="butt"/>
<line x1="510.20" y1="528.67" x2="581.00" y2="528.67" stroke="#8a909a" stroke-width="0.90" stroke-linecap="butt"/>
<line x1="510.20" y1="517.33" x2="581.00" y2="517.33" stroke="#8a909a" stroke-width="0.90" stroke-linecap="butt"/>
<line x1="510.20" y1="506.00" x2="581.00" y2="506.00" stroke="#8a909a" stroke-width="0.90" stroke-linecap="butt"/>
<line x1="510.20" y1="494.67" x2="581.00" y2="494.67" stroke="#8a909a" stroke-width="0.90" stroke-linecap="butt"/>
<line x1="510.20" y1="483.33" x2="581.00" y2="483.33" stroke="#8a909a" stroke-width="0.90" stroke-linecap="butt"/>
<line x1="510.20" y1="472.00" x2="581.00" y2="472.00" stroke="#8a909a" stroke-width="0.90" stroke-linecap="butt"/>
<line x1="510.20" y1="460.67" x2="581.00" y2="460.67" stroke="#8a909a" stroke-width="0.90" stroke-linecap="butt"/>
<line x1="510.20" y1="449.33" x2="581.00" y2="449.33" stroke="#8a909a" stroke-width="0.90" stroke-linecap="butt"/>
<line x1="510.20" y1="438.00" x2="581.00" y2="438.00" stroke="#8a909a" stroke-width="0.90" stroke-linecap="butt"/>
<line x1="431.00" y1="438.00" x2="501.80" y2="438.00" stroke="#8a909a" stroke-width="0.90" stroke-linecap="butt"/>
<line x1="431.00" y1="449.33" x2="501.80" y2="449.33" stroke="#8a909a" stroke-width="0.90" stroke-linecap="butt"/>
<line x1="431.00" y1="460.67" x2="501.80" y2="460.67" stroke="#8a909a" stroke-width="0.90" stroke-linecap="butt"/>
<line x1="431.00" y1="472.00" x2="501.80" y2="472.00" stroke="#8a909a" stroke-width="0.90" stroke-linecap="butt"/>
<line x1="431.00" y1="483.33" x2="501.80" y2="483.33" stroke="#8a909a" stroke-width="0.90" stroke-linecap="butt"/>
<line x1="431.00" y1="494.67" x2="501.80" y2="494.67" stroke="#8a909a" stroke-width="0.90" stroke-linecap="butt"/>
<line x1="431.00" y1="506.00" x2="501.80" y2="506.00" stroke="#8a909a" stroke-width="0.90" stroke-linecap="butt"/>
<line x1="431.00" y1="517.33" x2="501.80" y2="517.33" stroke="#8a909a" stroke-width="0.90" stroke-linecap="butt"/>
<line x1="431.00" y1="528.67" x2="501.80" y2="528.67" stroke="#8a909a" stroke-width="0.90" stroke-linecap="butt"/>
<line x1="431.00" y1="540.00" x2="501.80" y2="540.00" stroke="#8a909a" stroke-width="0.90" stroke-linecap="butt"/>
<rect x="501.80" y="438.00" width="8.40" height="102.00" rx="0.00" fill="none" stroke="#8a909a" stroke-width="0.90" opacity="1.00"/>
<line x1="545.00" y1="522.00" x2="545.00" y2="447.00" stroke="#5b6370" stroke-width="1.30" stroke-linecap="butt"/>
<path d="M 539.00 457.20 L 545.00 444.00 L 551.00 457.20" fill="none" stroke="#5b6370" stroke-width="1.30"/>
<circle cx="545.00" cy="522.00" r="2.20" fill="#5b6370" stroke="#5b6370" stroke-width="1.00"/>
<line x1="95.00" y1="105.00" x2="605.00" y2="105.00" stroke="#6b7280" stroke-width="0.80" stroke-linecap="butt"/>
<line x1="95.00" y1="101.00" x2="95.00" y2="109.00" stroke="#6b7280" stroke-width="0.80" stroke-linecap="butt"/>
<line x1="605.00" y1="101.00" x2="605.00" y2="109.00" stroke="#6b7280" stroke-width="0.80" stroke-linecap="butt"/>
<text x="350.00" y="101.00" font-family="Helvetica,Arial,sans-serif" font-size="12" fill="#6b7280" text-anchor="middle" font-weight="400" font-style="normal">8,50 m</text>
<line x1="65.00" y1="135.00" x2="65.00" y2="735.00" stroke="#6b7280" stroke-width="0.80" stroke-linecap="butt"/>
<line x1="61.00" y1="135.00" x2="69.00" y2="135.00" stroke="#6b7280" stroke-width="0.80" stroke-linecap="butt"/>
<line x1="61.00" y1="735.00" x2="69.00" y2="735.00" stroke="#6b7280" stroke-width="0.80" stroke-linecap="butt"/>
<text x="59.00" y="435.00" font-family="Helvetica,Arial,sans-serif" font-size="12" fill="#6b7280" text-anchor="middle" transform="rotate(-90 59.00 435.00)">10,00 m</text>
<text x="350.00" y="135.00" font-family="Helvetica,Arial,sans-serif" font-size="10" fill="#8a8f98" text-anchor="middle" font-weight="400" font-style="italic"></text>
<text x="350.00" y="785.00" font-family="Helvetica,Arial,sans-serif" font-size="17" fill="#1f2937" text-anchor="middle" font-weight="700" font-style="normal" letter-spacing="1">PŘÍZEMÍ  (1. NP)</text>
<rect x="735.00" y="135.00" width="510.00" height="600.00" rx="0.00" fill="#3f3f46" stroke="none" stroke-width="0.00" opacity="1.00"/>
<rect x="753.00" y="153.00" width="474.00" height="564.00" rx="0.00" fill="#ffffff" stroke="none" stroke-width="0.00" opacity="1.00"/>
<line x1="744.00" y1="141.00" x2="744.00" y2="729.00" stroke="#6f6f78" stroke-width="0.80" stroke-linecap="butt" stroke-dasharray="5,4"/>
<line x1="1236.00" y1="141.00" x2="1236.00" y2="729.00" stroke="#6f6f78" stroke-width="0.80" stroke-linecap="butt" stroke-dasharray="5,4"/>
<rect x="753.00" y="369.00" width="474.00" height="9.00" rx="0.00" fill="#3f3f46" stroke="none" stroke-width="0.00" opacity="1.00"/>
<rect x="921.00" y="153.00" width="9.00" height="220.50" rx="0.00" fill="#3f3f46" stroke="none" stroke-width="0.00" opacity="1.00"/>
<rect x="1056.00" y="373.50" width="9.00" height="166.50" rx="0.00" fill="#3f3f46" stroke="none" stroke-width="0.00" opacity="1.00"/>
<rect x="753.00" y="540.00" width="474.00" height="9.00" rx="0.00" fill="#3f3f46" stroke="none" stroke-width="0.00" opacity="1.00"/>
<rect x="939.00" y="549.00" width="9.00" height="168.00" rx="0.00" fill="#3f3f46" stroke="none" stroke-width="0.00" opacity="1.00"/>
<rect x="832.50" y="373.50" width="9.00" height="94.50" rx="0.00" fill="#3f3f46" stroke="none" stroke-width="0.00" opacity="1.00"/>
<rect x="753.00" y="463.50" width="84.00" height="9.00" rx="0.00" fill="#3f3f46" stroke="none" stroke-width="0.00" opacity="1.00"/>
<rect x="801.00" y="135.00" width="54.00" height="18.00" rx="0.00" fill="#ffffff" stroke="none" stroke-width="0.00" opacity="1.00"/>
<line x1="801.00" y1="144.00" x2="855.00" y2="144.00" stroke="#7fb2d6" stroke-width="2.20" stroke-linecap="butt"/>
<line x1="801.00" y1="135.00" x2="855.00" y2="135.00" stroke="#3f3f46" stroke-width="1.00" stroke-linecap="butt"/>
<line x1="801.00" y1="153.00" x2="855.00" y2="153.00" stroke="#3f3f46" stroke-width="1.00" stroke-linecap="butt"/>
<rect x="1011.00" y="135.00" width="108.00" height="18.00" rx="0.00" fill="#ffffff" stroke="none" stroke-width="0.00" opacity="1.00"/>
<line x1="1011.00" y1="144.00" x2="1119.00" y2="144.00" stroke="#7fb2d6" stroke-width="2.20" stroke-linecap="butt"/>
<line x1="1011.00" y1="135.00" x2="1119.00" y2="135.00" stroke="#3f3f46" stroke-width="1.00" stroke-linecap="butt"/>
<line x1="1011.00" y1="153.00" x2="1119.00" y2="153.00" stroke="#3f3f46" stroke-width="1.00" stroke-linecap="butt"/>
<rect x="789.00" y="717.00" width="72.00" height="18.00" rx="0.00" fill="#ffffff" stroke="none" stroke-width="0.00" opacity="1.00"/>
<line x1="789.00" y1="726.00" x2="861.00" y2="726.00" stroke="#7fb2d6" stroke-width="2.20" stroke-linecap="butt"/>
<line x1="789.00" y1="717.00" x2="861.00" y2="717.00" stroke="#3f3f46" stroke-width="1.00" stroke-linecap="butt"/>
<line x1="789.00" y1="735.00" x2="861.00" y2="735.00" stroke="#3f3f46" stroke-width="1.00" stroke-linecap="butt"/>
<rect x="1017.00" y="717.00" width="96.00" height="18.00" rx="0.00" fill="#ffffff" stroke="none" stroke-width="0.00" opacity="1.00"/>
<line x1="1017.00" y1="726.00" x2="1113.00" y2="726.00" stroke="#7fb2d6" stroke-width="2.20" stroke-linecap="butt"/>
<line x1="1017.00" y1="717.00" x2="1113.00" y2="717.00" stroke="#3f3f46" stroke-width="1.00" stroke-linecap="butt"/>
<line x1="1017.00" y1="735.00" x2="1113.00" y2="735.00" stroke="#3f3f46" stroke-width="1.00" stroke-linecap="butt"/>
<rect x="804.00" y="367.20" width="48.00" height="12.60" rx="0.00" fill="#ffffff" stroke="none" stroke-width="0.00" opacity="1.00"/>
<line x1="804.00" y1="373.50" x2="804.00" y2="325.50" stroke="#9aa0a8" stroke-width="1.40" stroke-linecap="butt"/>
<path d="M 852.00 373.50 A 48.00 48.00 0 0 0 804.00 325.50" fill="none" stroke="#9aa0a8" stroke-width="1.00"/>
<rect x="972.00" y="367.20" width="54.00" height="12.60" rx="0.00" fill="#ffffff" stroke="none" stroke-width="0.00" opacity="1.00"/>
<line x1="1026.00" y1="373.50" x2="1026.00" y2="319.50" stroke="#9aa0a8" stroke-width="1.40" stroke-linecap="butt"/>
<path d="M 972.00 373.50 A 54.00 54.00 0 0 1 1026.00 319.50" fill="none" stroke="#9aa0a8" stroke-width="1.00"/>
<rect x="830.70" y="396.00" width="12.60" height="42.00" rx="0.00" fill="#ffffff" stroke="none" stroke-width="0.00" opacity="1.00"/>
<line x1="837.00" y1="396.00" x2="795.00" y2="396.00" stroke="#9aa0a8" stroke-width="1.40" stroke-linecap="butt"/>
<path d="M 837.00 438.00 A 42.00 42.00 0 0 1 795.00 396.00" fill="none" stroke="#9aa0a8" stroke-width="1.00"/>
<rect x="798.00" y="538.20" width="54.00" height="12.60" rx="0.00" fill="#ffffff" stroke="none" stroke-width="0.00" opacity="1.00"/>
<line x1="798.00" y1="544.50" x2="798.00" y2="598.50" stroke="#9aa0a8" stroke-width="1.40" stroke-linecap="butt"/>
<path d="M 852.00 544.50 A 54.00 54.00 0 0 1 798.00 598.50" fill="none" stroke="#9aa0a8" stroke-width="1.00"/>
<rect x="1008.00" y="538.20" width="54.00" height="12.60" rx="0.00" fill="#ffffff" stroke="none" stroke-width="0.00" opacity="1.00"/>
<line x1="1062.00" y1="544.50" x2="1062.00" y2="598.50" stroke="#9aa0a8" stroke-width="1.40" stroke-linecap="butt"/>
<path d="M 1008.00 544.50 A 54.00 54.00 0 0 0 1062.00 598.50" fill="none" stroke="#9aa0a8" stroke-width="1.00"/>
<rect x="759.00" y="159.00" width="99.00" height="39.00" rx="4.80" fill="none" stroke="#c4c8cf" stroke-width="1.10" opacity="1.00"/>
<circle cx="847.20" cy="178.20" r="3.00" fill="none" stroke="#c4c8cf" stroke-width="0.80"/>
<rect x="885.00" y="162.00" width="27.00" height="30.00" rx="3.60" fill="none" stroke="#c4c8cf" stroke-width="0.90" opacity="1.00"/>
<rect x="888.00" y="328.80" width="24.00" height="30.00" rx="7.20" fill="none" stroke="#c4c8cf" stroke-width="0.90" opacity="1.00"/>
<rect x="759.00" y="309.00" width="54.00" height="54.00" rx="0.00" fill="none" stroke="#c4c8cf" stroke-width="1.10" opacity="1.00"/>
<circle cx="786.00" cy="336.00" r="3.00" fill="none" stroke="#c4c8cf" stroke-width="0.80"/>
<rect x="1047.00" y="168.00" width="120.00" height="132.00" rx="3.00" fill="none" stroke="#c4c8cf" stroke-width="1.10" opacity="1.00"/>
<rect x="1051.80" y="172.80" width="110.40" height="21.00" rx="3.00" fill="none" stroke="#c4c8cf" stroke-width="0.90" opacity="1.00"/>
<rect x="936.00" y="162.00" width="36.00" height="189.00" rx="0.00" fill="none" stroke="#c4c8cf" stroke-width="1.10" opacity="1.00"/>
<line x1="936.00" y1="193.50" x2="972.00" y2="193.50" stroke="#c4c8cf" stroke-width="0.60" stroke-linecap="butt"/>
<line x1="936.00" y1="225.00" x2="972.00" y2="225.00" stroke="#c4c8cf" stroke-width="0.60" stroke-linecap="butt"/>
<line x1="936.00" y1="256.50" x2="972.00" y2="256.50" stroke="#c4c8cf" stroke-width="0.60" stroke-linecap="butt"/>
<line x1="936.00" y1="288.00" x2="972.00" y2="288.00" stroke="#c4c8cf" stroke-width="0.60" stroke-linecap="butt"/>
<line x1="936.00" y1="319.50" x2="972.00" y2="319.50" stroke="#c4c8cf" stroke-width="0.60" stroke-linecap="butt"/>
<rect x="759.00" y="378.00" width="69.00" height="30.00" rx="0.00" fill="none" stroke="#c4c8cf" stroke-width="1.10" opacity="1.00"/>
<line x1="793.50" y1="378.00" x2="793.50" y2="408.00" stroke="#c4c8cf" stroke-width="0.60" stroke-linecap="butt"/>
<rect x="768.00" y="621.00" width="60.00" height="87.00" rx="3.00" fill="none" stroke="#c4c8cf" stroke-width="1.10" opacity="1.00"/>
<rect x="772.80" y="682.20" width="50.40" height="21.00" rx="3.00" fill="none" stroke="#c4c8cf" stroke-width="0.90" opacity="1.00"/>
<rect x="873.00" y="558.00" width="60.00" height="30.00" rx="0.00" fill="none" stroke="#c4c8cf" stroke-width="1.10" opacity="1.00"/>
<line x1="903.00" y1="558.00" x2="903.00" y2="588.00" stroke="#c4c8cf" stroke-width="0.60" stroke-linecap="butt"/>
<rect x="1158.00" y="582.00" width="60.00" height="126.00" rx="3.00" fill="none" stroke="#c4c8cf" stroke-width="1.10" opacity="1.00"/>
<rect x="1162.80" y="586.80" width="50.40" height="21.00" rx="3.00" fill="none" stroke="#c4c8cf" stroke-width="0.90" opacity="1.00"/>
<rect x="954.00" y="594.00" width="30.00" height="105.00" rx="0.00" fill="none" stroke="#c4c8cf" stroke-width="1.10" opacity="1.00"/>
<line x1="954.00" y1="629.00" x2="984.00" y2="629.00" stroke="#c4c8cf" stroke-width="0.60" stroke-linecap="butt"/>
<line x1="954.00" y1="664.00" x2="984.00" y2="664.00" stroke="#c4c8cf" stroke-width="0.60" stroke-linecap="butt"/>
<text x="837.00" y="256.00" font-family="Helvetica,Arial,sans-serif" font-size="12" fill="#1f2937" text-anchor="middle" font-weight="600" font-style="normal">Koupelna</text>
<text x="837.00" y="272.00" font-family="Helvetica,Arial,sans-serif" font-size="12" fill="#1f2937" text-anchor="middle" font-weight="600" font-style="normal">+ WC</text>
<text x="837.00" y="289.00" font-family="Helvetica,Arial,sans-serif" font-size="11" fill="#4b5563" text-anchor="middle" font-weight="400" font-style="normal">9,5 m²</text>
<text x="1078.50" y="264.00" font-family="Helvetica,Arial,sans-serif" font-size="14" fill="#1f2937" text-anchor="middle" font-weight="600" font-style="normal">Ložnice</text>
<text x="1078.50" y="281.00" font-family="Helvetica,Arial,sans-serif" font-size="13" fill="#4b5563" text-anchor="middle" font-weight="400" font-style="normal">17,8 m²</text>
<text x="939.00" y="456.00" font-family="Helvetica,Arial,sans-serif" font-size="13" fill="#1f2937" text-anchor="middle" font-weight="600" font-style="normal">Chodba</text>
<text x="939.00" y="473.00" font-family="Helvetica,Arial,sans-serif" font-size="12" fill="#4b5563" text-anchor="middle" font-weight="400" font-style="normal">9,0 m²</text>
<text x="792.00" y="423.00" font-family="Helvetica,Arial,sans-serif" font-size="10" fill="#1f2937" text-anchor="middle" font-weight="600" font-style="normal">Šatna</text>
<text x="792.00" y="440.00" font-family="Helvetica,Arial,sans-serif" font-size="9" fill="#4b5563" text-anchor="middle" font-weight="400" font-style="normal">2,0 m²</text>
<text x="1146.00" y="459.00" font-family="Helvetica,Arial,sans-serif" font-size="13" fill="#1f2937" text-anchor="middle" font-weight="600" font-style="normal">Schodiště</text>
<text x="1146.00" y="476.00" font-family="Helvetica,Arial,sans-serif" font-size="12" fill="#4b5563" text-anchor="middle" font-weight="400" font-style="normal">7,0 m²</text>
<text x="846.00" y="636.00" font-family="Helvetica,Arial,sans-serif" font-size="13" fill="#1f2937" text-anchor="middle" font-weight="600" font-style="normal">Pokoj</text>
<text x="846.00" y="653.00" font-family="Helvetica,Arial,sans-serif" font-size="12" fill="#4b5563" text-anchor="middle" font-weight="400" font-style="normal">8,7 m²</text>
<text x="1087.50" y="636.00" font-family="Helvetica,Arial,sans-serif" font-size="13" fill="#1f2937" text-anchor="middle" font-weight="600" font-style="normal">Pokoj</text>
<text x="1087.50" y="653.00" font-family="Helvetica,Arial,sans-serif" font-size="12" fill="#4b5563" text-anchor="middle" font-weight="400" font-style="normal">13,0 m²</text>
<line x1="1150.20" y1="540.00" x2="1221.00" y2="540.00" stroke="#8a909a" stroke-width="0.90" stroke-linecap="butt"/>
<line x1="1150.20" y1="528.67" x2="1221.00" y2="528.67" stroke="#8a909a" stroke-width="0.90" stroke-linecap="butt"/>
<line x1="1150.20" y1="517.33" x2="1221.00" y2="517.33" stroke="#8a909a" stroke-width="0.90" stroke-linecap="butt"/>
<line x1="1150.20" y1="506.00" x2="1221.00" y2="506.00" stroke="#8a909a" stroke-width="0.90" stroke-linecap="butt"/>
<line x1="1150.20" y1="494.67" x2="1221.00" y2="494.67" stroke="#8a909a" stroke-width="0.90" stroke-linecap="butt"/>
<line x1="1150.20" y1="483.33" x2="1221.00" y2="483.33" stroke="#8a909a" stroke-width="0.90" stroke-linecap="butt"/>
<line x1="1150.20" y1="472.00" x2="1221.00" y2="472.00" stroke="#8a909a" stroke-width="0.90" stroke-linecap="butt"/>
<line x1="1150.20" y1="460.67" x2="1221.00" y2="460.67" stroke="#8a909a" stroke-width="0.90" stroke-linecap="butt"/>
<line x1="1150.20" y1="449.33" x2="1221.00" y2="449.33" stroke="#8a909a" stroke-width="0.90" stroke-linecap="butt"/>
<line x1="1150.20" y1="438.00" x2="1221.00" y2="438.00" stroke="#8a909a" stroke-width="0.90" stroke-linecap="butt"/>
<line x1="1071.00" y1="438.00" x2="1141.80" y2="438.00" stroke="#8a909a" stroke-width="0.90" stroke-linecap="butt"/>
<line x1="1071.00" y1="449.33" x2="1141.80" y2="449.33" stroke="#8a909a" stroke-width="0.90" stroke-linecap="butt"/>
<line x1="1071.00" y1="460.67" x2="1141.80" y2="460.67" stroke="#8a909a" stroke-width="0.90" stroke-linecap="butt"/>
<line x1="1071.00" y1="472.00" x2="1141.80" y2="472.00" stroke="#8a909a" stroke-width="0.90" stroke-linecap="butt"/>
<line x1="1071.00" y1="483.33" x2="1141.80" y2="483.33" stroke="#8a909a" stroke-width="0.90" stroke-linecap="butt"/>
<line x1="1071.00" y1="494.67" x2="1141.80" y2="494.67" stroke="#8a909a" stroke-width="0.90" stroke-linecap="butt"/>
<line x1="1071.00" y1="506.00" x2="1141.80" y2="506.00" stroke="#8a909a" stroke-width="0.90" stroke-linecap="butt"/>
<line x1="1071.00" y1="517.33" x2="1141.80" y2="517.33" stroke="#8a909a" stroke-width="0.90" stroke-linecap="butt"/>
<line x1="1071.00" y1="528.67" x2="1141.80" y2="528.67" stroke="#8a909a" stroke-width="0.90" stroke-linecap="butt"/>
<line x1="1071.00" y1="540.00" x2="1141.80" y2="540.00" stroke="#8a909a" stroke-width="0.90" stroke-linecap="butt"/>
<rect x="1141.80" y="438.00" width="8.40" height="102.00" rx="0.00" fill="none" stroke="#8a909a" stroke-width="0.90" opacity="1.00"/>
<line x1="1107.00" y1="447.00" x2="1107.00" y2="522.00" stroke="#5b6370" stroke-width="1.30" stroke-linecap="butt"/>
<path d="M 1101.00 510.00 L 1107.00 523.20 L 1113.00 510.00" fill="none" stroke="#5b6370" stroke-width="1.30"/>
<line x1="1065.00" y1="378.00" x2="1224.00" y2="378.00" stroke="#8a909a" stroke-width="1.40" stroke-linecap="butt"/>
<line x1="735.00" y1="105.00" x2="1245.00" y2="105.00" stroke="#6b7280" stroke-width="0.80" stroke-linecap="butt"/>
<line x1="735.00" y1="101.00" x2="735.00" y2="109.00" stroke="#6b7280" stroke-width="0.80" stroke-linecap="butt"/>
<line x1="1245.00" y1="101.00" x2="1245.00" y2="109.00" stroke="#6b7280" stroke-width="0.80" stroke-linecap="butt"/>
<text x="990.00" y="101.00" font-family="Helvetica,Arial,sans-serif" font-size="12" fill="#6b7280" text-anchor="middle" font-weight="400" font-style="normal">8,50 m</text>
<line x1="705.00" y1="135.00" x2="705.00" y2="735.00" stroke="#6b7280" stroke-width="0.80" stroke-linecap="butt"/>
<line x1="701.00" y1="135.00" x2="709.00" y2="135.00" stroke="#6b7280" stroke-width="0.80" stroke-linecap="butt"/>
<line x1="701.00" y1="735.00" x2="709.00" y2="735.00" stroke="#6b7280" stroke-width="0.80" stroke-linecap="butt"/>
<text x="699.00" y="435.00" font-family="Helvetica,Arial,sans-serif" font-size="12" fill="#6b7280" text-anchor="middle" transform="rotate(-90 699.00 435.00)">10,00 m</text>
<text x="990.00" y="785.00" font-family="Helvetica,Arial,sans-serif" font-size="17" fill="#1f2937" text-anchor="middle" font-weight="700" font-style="normal" letter-spacing="1">PATRO  (2. NP)</text>
<g transform="translate(321.0,855)"><rect x="60.00" y="0.00" width="612.00" height="96.00" rx="0.00" fill="#cfe3c4" stroke="none" stroke-width="0.00" opacity="0.50"/>
<rect x="24.00" y="456.00" width="684.00" height="72.00" rx="0.00" fill="#e7e7e4" stroke="none" stroke-width="0.00" opacity="1.00"/>
<text x="366.00" y="496.00" font-family="Helvetica,Arial,sans-serif" font-size="11" fill="#9aa0a8" text-anchor="middle" font-weight="600" font-style="normal" letter-spacing="1">PŘÍJEZDOVÁ KOMUNIKACE</text>
<rect x="60.00" y="96.00" width="204.00" height="240.00" rx="0.00" fill="#eef0ee" stroke="#3f3f46" stroke-width="2.00" opacity="1.00"/>
<line x1="60.00" y1="192.00" x2="264.00" y2="192.00" stroke="#b9bcc2" stroke-width="0.80" stroke-linecap="butt"/>
<line x1="60.00" y1="261.60" x2="264.00" y2="261.60" stroke="#b9bcc2" stroke-width="0.80" stroke-linecap="butt"/>
<line x1="190.08" y1="192.00" x2="190.08" y2="336.00" stroke="#b9bcc2" stroke-width="0.80" stroke-linecap="butt"/>
<text x="162.00" y="144.00" font-family="Helvetica,Arial,sans-serif" font-size="15" fill="#2b3340" text-anchor="middle" font-weight="800" font-style="normal">DŮM 10</text>
<text x="162.00" y="162.00" font-family="Helvetica,Arial,sans-serif" font-size="11" fill="#5b6370" text-anchor="middle" font-weight="400" font-style="normal">85,00 m²</text>
<rect x="129.60" y="343.20" width="64.80" height="108.00" rx="0.00" fill="#fbfbfa" stroke="#9aa0a8" stroke-width="1.00" opacity="1.00" stroke-dasharray="5,4"/>
<rect x="141.60" y="352.80" width="40.80" height="91.20" rx="7.20" fill="#dde6ee" stroke="#8a909a" stroke-width="1.20" opacity="1.00"/>
<rect x="146.40" y="379.20" width="31.20" height="38.40" rx="3.60" fill="none" stroke="#8a909a" stroke-width="0.90" opacity="1.00"/>
<circle cx="79.20" cy="369.60" r="18.00" fill="#cfe3c4" stroke="#9bbf8a" stroke-width="1.00"/>
<circle cx="79.20" cy="369.60" r="10.80" fill="none" stroke="#9bbf8a" stroke-width="0.80"/>
<rect x="264.00" y="96.00" width="204.00" height="240.00" rx="0.00" fill="#e4ecf5" stroke="#3f3f46" stroke-width="2.00" opacity="1.00"/>
<line x1="264.00" y1="192.00" x2="468.00" y2="192.00" stroke="#b9bcc2" stroke-width="0.80" stroke-linecap="butt"/>
<line x1="264.00" y1="261.60" x2="468.00" y2="261.60" stroke="#b9bcc2" stroke-width="0.80" stroke-linecap="butt"/>
<line x1="394.08" y1="192.00" x2="394.08" y2="336.00" stroke="#b9bcc2" stroke-width="0.80" stroke-linecap="butt"/>
<text x="366.00" y="144.00" font-family="Helvetica,Arial,sans-serif" font-size="15" fill="#1f4e79" text-anchor="middle" font-weight="800" font-style="normal">DŮM 11</text>
<text x="366.00" y="162.00" font-family="Helvetica,Arial,sans-serif" font-size="11" fill="#5b6370" text-anchor="middle" font-weight="400" font-style="normal">85,00 m²</text>
<text x="366.00" y="321.60" font-family="Helvetica,Arial,sans-serif" font-size="10" fill="#1f4e79" text-anchor="middle" font-weight="400" font-style="italic">(řešená jednotka)</text>
<rect x="333.60" y="343.20" width="64.80" height="108.00" rx="0.00" fill="#fbfbfa" stroke="#9aa0a8" stroke-width="1.00" opacity="1.00" stroke-dasharray="5,4"/>
<rect x="345.60" y="352.80" width="40.80" height="91.20" rx="7.20" fill="#dde6ee" stroke="#8a909a" stroke-width="1.20" opacity="1.00"/>
<rect x="350.40" y="379.20" width="31.20" height="38.40" rx="3.60" fill="none" stroke="#8a909a" stroke-width="0.90" opacity="1.00"/>
<circle cx="448.80" cy="369.60" r="18.00" fill="#cfe3c4" stroke="#9bbf8a" stroke-width="1.00"/>
<circle cx="448.80" cy="369.60" r="10.80" fill="none" stroke="#9bbf8a" stroke-width="0.80"/>
<rect x="468.00" y="96.00" width="204.00" height="240.00" rx="0.00" fill="#eef0ee" stroke="#3f3f46" stroke-width="2.00" opacity="1.00"/>
<line x1="468.00" y1="192.00" x2="672.00" y2="192.00" stroke="#b9bcc2" stroke-width="0.80" stroke-linecap="butt"/>
<line x1="468.00" y1="261.60" x2="672.00" y2="261.60" stroke="#b9bcc2" stroke-width="0.80" stroke-linecap="butt"/>
<line x1="598.08" y1="192.00" x2="598.08" y2="336.00" stroke="#b9bcc2" stroke-width="0.80" stroke-linecap="butt"/>
<text x="570.00" y="144.00" font-family="Helvetica,Arial,sans-serif" font-size="15" fill="#2b3340" text-anchor="middle" font-weight="800" font-style="normal">DŮM 12</text>
<text x="570.00" y="162.00" font-family="Helvetica,Arial,sans-serif" font-size="11" fill="#5b6370" text-anchor="middle" font-weight="400" font-style="normal">85,00 m²</text>
<rect x="537.60" y="343.20" width="64.80" height="108.00" rx="0.00" fill="#fbfbfa" stroke="#9aa0a8" stroke-width="1.00" opacity="1.00" stroke-dasharray="5,4"/>
<rect x="549.60" y="352.80" width="40.80" height="91.20" rx="7.20" fill="#dde6ee" stroke="#8a909a" stroke-width="1.20" opacity="1.00"/>
<rect x="554.40" y="379.20" width="31.20" height="38.40" rx="3.60" fill="none" stroke="#8a909a" stroke-width="0.90" opacity="1.00"/>
<circle cx="652.80" cy="369.60" r="18.00" fill="#cfe3c4" stroke="#9bbf8a" stroke-width="1.00"/>
<circle cx="652.80" cy="369.60" r="10.80" fill="none" stroke="#9bbf8a" stroke-width="0.80"/>
<line x1="264.00" y1="96.00" x2="264.00" y2="336.00" stroke="#3f3f46" stroke-width="3.00" stroke-linecap="butt"/>
<line x1="468.00" y1="96.00" x2="468.00" y2="336.00" stroke="#3f3f46" stroke-width="3.00" stroke-linecap="butt"/>
<line x1="60.00" y1="81.60" x2="672.00" y2="81.60" stroke="#6b7280" stroke-width="0.80" stroke-linecap="butt"/>
<line x1="60.00" y1="77.60" x2="60.00" y2="85.60" stroke="#6b7280" stroke-width="0.80" stroke-linecap="butt"/>
<line x1="672.00" y1="77.60" x2="672.00" y2="85.60" stroke="#6b7280" stroke-width="0.80" stroke-linecap="butt"/>
<text x="366.00" y="77.60" font-family="Helvetica,Arial,sans-serif" font-size="12" fill="#6b7280" text-anchor="middle" font-weight="400" font-style="normal">25,50 m  (3 × 8,50 m)</text>
<text x="366.00" y="-12.00" font-family="Helvetica,Arial,sans-serif" font-size="15" fill="#1f2937" text-anchor="middle" font-weight="700" font-style="normal" letter-spacing="1">SITUACE — TROJDOMEK  (3 jednotky, parkovací stání + zeleň)</text>
<text x="679.20" y="144.00" font-family="Helvetica,Arial,sans-serif" font-size="10" fill="#7a8a6a" text-anchor="start" font-weight="400" font-style="normal">ZAHRADA</text></g>
<rect x="70.00" y="1449.00" width="1155.00" height="122.00" rx="8.00" fill="#ffffff" stroke="#e4e4e7" stroke-width="1.00" opacity="1.00"/>
<text x="92.00" y="1473.00" font-family="Helvetica,Arial,sans-serif" font-size="13" fill="#1f2937" text-anchor="start" font-weight="700" font-style="normal">LEGENDA</text>
<rect x="212.00" y="1464.00" width="34.00" height="10.00" rx="0.00" fill="#3f3f46" stroke="none" stroke-width="0.00" opacity="1.00"/>
<text x="256.00" y="1475.00" font-family="Helvetica,Arial,sans-serif" font-size="11" fill="#1f2937" text-anchor="start" font-weight="400" font-style="normal">nosné / dělící zdivo</text>
<rect x="482.00" y="1464.00" width="34.00" height="10.00" rx="0.00" fill="#3f3f46" stroke="none" stroke-width="0.00" opacity="1.00"/>
<line x1="499.00" y1="1464.00" x2="499.00" y2="1474.00" stroke="#cfd2d6" stroke-width="1.20" stroke-linecap="butt" stroke-dasharray="3,3"/>
<text x="526.00" y="1475.00" font-family="Helvetica,Arial,sans-serif" font-size="11" fill="#1f2937" text-anchor="start" font-weight="400" font-style="normal">mezibytová akustická stěna</text>
<rect x="752.00" y="1464.00" width="34.00" height="10.00" rx="0.00" fill="#ffffff" stroke="#3f3f46" stroke-width="0.80" opacity="1.00"/>
<line x1="752.00" y1="1469.00" x2="786.00" y2="1469.00" stroke="#7fb2d6" stroke-width="2.20" stroke-linecap="butt"/>
<text x="796.00" y="1475.00" font-family="Helvetica,Arial,sans-serif" font-size="11" fill="#1f2937" text-anchor="start" font-weight="400" font-style="normal">okno / prosklení</text>
<path d="M 1022 1474.0 A 22 22 0 0 0 1044 1452.0" fill="none" stroke="#9aa0a8" stroke-width="1.00"/>
<line x1="1022.00" y1="1474.00" x2="1022.00" y2="1452.00" stroke="#9aa0a8" stroke-width="1.40" stroke-linecap="butt"/>
<text x="1066.00" y="1475.00" font-family="Helvetica,Arial,sans-serif" font-size="11" fill="#1f2937" text-anchor="start" font-weight="400" font-style="normal">dveře</text>
<rect x="1292.00" y="1462.00" width="30.00" height="14.00" rx="3.00" fill="none" stroke="#c4c8cf" stroke-width="1.10" opacity="1.00"/>
<text x="1336.00" y="1475.00" font-family="Helvetica,Arial,sans-serif" font-size="11" fill="#1f2937" text-anchor="start" font-weight="400" font-style="normal">zařízení</text>
<text x="92.00" y="1499.00" font-family="Helvetica,Arial,sans-serif" font-size="10.5" fill="#52525b" text-anchor="start" font-weight="400" font-style="normal">Přízemí (1. NP): obývací pokoj s kuchyní a jídelnou 28,0 · chodba 9,0 · zádveří 7,6 · technická m. 6,7 · pracovna 6,6 · schodiště 7,0 · spíž 1,7 · WC 1,7 m²</text>
<text x="92.00" y="1514.00" font-family="Helvetica,Arial,sans-serif" font-size="10.5" fill="#52525b" text-anchor="start" font-weight="400" font-style="normal">Patro (2. NP): ložnice 17,8 · pokoj 13,0 · pokoj 8,7 · koupelna s WC 9,5 · chodba 9,0 · schodiště 7,0 · šatna 2,0 m²</text>
<text x="92.00" y="1529.00" font-family="Helvetica,Arial,sans-serif" font-size="10.5" fill="#52525b" text-anchor="start" font-weight="400" font-style="normal">Konstrukce: obvodové zdivo 300 mm, mezibytové akustické stěny 300 mm (R'w ≥ 53 dB dle ČSN 73 0532), příčky 150 mm · konstrukční výška podlaží 3,0 m.</text>
<text x="92.00" y="1544.00" font-family="Helvetica,Arial,sans-serif" font-size="10.5" fill="#52525b" text-anchor="start" font-weight="400" font-style="normal">Parkování: 1 venkovní stání 2,7 × 5,0 m před každým domem (dle ČSN 73 6056/73 6110) · okna pouze do ulice a na zahradu (mezibytové stěny bez otvorů).</text>
</svg>