<svg xmlns="http://www.w3.org/2000/svg" width="1315" height="1593.0" viewBox="0 0 1315 1593.0">
<rect x="0.00" y="0.00" width="1315.00" height="1593.00" rx="0.00" fill="#f7f7f5" stroke="none" stroke-width="0.00" opacity="1.00"/>
<text x="657.50" y="46.00" font-family="Helvetica,Arial,sans-serif" font-size="21" fill="#1f2937" text-anchor="middle" font-weight="800" font-style="normal" letter-spacing="1">ŘADOVÝ DŮM — TROJDOMEK S GARÁŽÍ  ·  jednotka 8,5 × 10,0 m (85 m²)  ·  2 NP</text>
<text x="657.50" y="70.00" font-family="Helvetica,Arial,sans-serif" font-size="12" fill="#6b7280" text-anchor="middle" font-weight="400" font-style="normal">Garáž pro 1 auto v přízemí · sdílené mezibytové stěny · měřítko 1:100 · ČSN 73 4301, 73 4130, 73 4108, 73 6058, 73 0532</text>
<rect x="95.00" y="135.00" width="510.00" height="600.00" rx="0.00" fill="#3f3f46" stroke="none" stroke-width="0.00" opacity="1.00"/>
<rect x="113.00" y="153.00" width="474.00" height="564.00" rx="0.00" fill="#ffffff" stroke="none" stroke-width="0.00" opacity="1.00"/>
<line x1="104.00" y1="141.00" x2="104.00" y2="729.00" stroke="#6f6f78" stroke-width="0.80" stroke-linecap="butt" stroke-dasharray="5,4"/>
<line x1="596.00" y1="141.00" x2="596.00" y2="729.00" stroke="#6f6f78" stroke-width="0.80" stroke-linecap="butt" stroke-dasharray="5,4"/>
<rect x="362.00" y="153.00" width="18.00" height="564.00" rx="0.00" fill="#3f3f46" stroke="none" stroke-width="0.00" opacity="1.00"/>
<rect x="371.00" y="388.50" width="216.00" height="9.00" rx="0.00" fill="#3f3f46" stroke="none" stroke-width="0.00" opacity="1.00"/>
<rect x="113.00" y="540.00" width="249.00" height="9.00" rx="0.00" fill="#3f3f46" stroke="none" stroke-width="0.00" opacity="1.00"/>
<rect x="234.50" y="544.50" width="9.00" height="172.50" rx="0.00" fill="#3f3f46" stroke="none" stroke-width="0.00" opacity="1.00"/>
<rect x="183.50" y="459.00" width="9.00" height="85.50" rx="0.00" fill="#3f3f46" stroke="none" stroke-width="0.00" opacity="1.00"/>
<rect x="113.00" y="454.50" width="75.00" height="9.00" rx="0.00" fill="#3f3f46" stroke="none" stroke-width="0.00" opacity="1.00"/>
<rect x="149.00" y="135.00" width="144.00" height="18.00" rx="0.00" fill="#ffffff" stroke="none" stroke-width="0.00" opacity="1.00"/>
<line x1="149.00" y1="141.30" x2="293.00" y2="141.30" stroke="#7fb2d6" stroke-width="2.20" stroke-linecap="butt"/>
<line x1="149.00" y1="146.70" x2="293.00" y2="146.70" stroke="#7fb2d6" stroke-width="2.20" stroke-linecap="butt"/>
<line x1="149.00" y1="135.00" x2="293.00" y2="135.00" stroke="#3f3f46" stroke-width="1.00" stroke-linecap="butt"/>
<line x1="149.00" y1="153.00" x2="293.00" y2="153.00" stroke="#3f3f46" stroke-width="1.00" stroke-linecap="butt"/>
<rect x="431.00" y="135.00" width="84.00" height="18.00" rx="0.00" fill="#ffffff" stroke="none" stroke-width="0.00" opacity="1.00"/>
<line x1="431.00" y1="144.00" x2="515.00" y2="144.00" stroke="#7fb2d6" stroke-width="2.20" stroke-linecap="butt"/>
<line x1="431.00" y1="135.00" x2="515.00" y2="135.00" stroke="#3f3f46" stroke-width="1.00" stroke-linecap="butt"/>
<line x1="431.00" y1="153.00" x2="515.00" y2="153.00" stroke="#3f3f46" stroke-width="1.00" stroke-linecap="butt"/>
<rect x="143.00" y="717.00" width="72.00" height="18.00" rx="0.00" fill="#ffffff" stroke="none" stroke-width="0.00" opacity="1.00"/>
<line x1="143.00" y1="726.00" x2="215.00" y2="726.00" stroke="#7fb2d6" stroke-width="2.20" stroke-linecap="butt"/>
<line x1="143.00" y1="717.00" x2="215.00" y2="717.00" stroke="#3f3f46" stroke-width="1.00" stroke-linecap="butt"/>
<line x1="143.00" y1="735.00" x2="215.00" y2="735.00" stroke="#3f3f46" stroke-width="1.00" stroke-linecap="butt"/>
<rect x="272.00" y="717.00" width="54.00" height="18.00" rx="0.00" fill="#ffffff" stroke="none" stroke-width="0.00" opacity="1.00"/>
<line x1="272.00" y1="726.00" x2="326.00" y2="726.00" stroke="#7fb2d6" stroke-width="2.20" stroke-linecap="butt"/>
<line x1="272.00" y1="717.00" x2="326.00" y2="717.00" stroke="#3f3f46" stroke-width="1.00" stroke-linecap="butt"/>
<line x1="272.00" y1="735.00" x2="326.00" y2="735.00" stroke="#3f3f46" stroke-width="1.00" stroke-linecap="butt"/>
<rect x="407.00" y="717.00" width="150.00" height="18.00" rx="0.00" fill="#ffffff" stroke="none" stroke-width="0.00" opacity="1.00"/>
<line x1="407.00" y1="726.00" x2="557.00" y2="726.00" stroke="#3f3f46" stroke-width="1.60" stroke-linecap="butt"/>
<rect x="407.00" y="706.20" width="150.00" height="10.80" rx="0.00" fill="none" stroke="#9aa0a8" stroke-width="0.80" opacity="1.00" stroke-dasharray="4,3"/>
<rect x="150.50" y="715.20" width="57.00" height="21.60" rx="0.00" fill="#ffffff" stroke="none" stroke-width="0.00" opacity="1.00"/>
<line x1="150.50" y1="726.00" x2="150.50" y2="669.00" stroke="#9aa0a8" stroke-width="1.40" stroke-linecap="butt"/>
<path d="M 207.50 726.00 A 57.00 57.00 0 0 0 150.50 669.00" fill="none" stroke="#9aa0a8" stroke-width="1.00"/>
<rect x="146.00" y="538.20" width="54.00" height="12.60" rx="0.00" fill="#ffffff" stroke="none" stroke-width="0.00" opacity="1.00"/>
<line x1="146.00" y1="544.50" x2="146.00" y2="490.50" stroke="#9aa0a8" stroke-width="1.40" stroke-linecap="butt"/>
<path d="M 200.00 544.50 A 54.00 54.00 0 0 0 146.00 490.50" fill="none" stroke="#9aa0a8" stroke-width="1.00"/>
<rect x="275.00" y="538.20" width="48.00" height="12.60" rx="0.00" fill="#ffffff" stroke="none" stroke-width="0.00" opacity="1.00"/>
<line x1="323.00" y1="544.50" x2="323.00" y2="496.50" stroke="#9aa0a8" stroke-width="1.40" stroke-linecap="butt"/>
<path d="M 275.00 544.50 A 48.00 48.00 0 0 1 323.00 496.50" fill="none" stroke="#9aa0a8" stroke-width="1.00"/>
<rect x="181.70" y="483.00" width="12.60" height="36.00" rx="0.00" fill="#ffffff" stroke="none" stroke-width="0.00" opacity="1.00"/>
<line x1="188.00" y1="483.00" x2="152.00" y2="483.00" stroke="#9aa0a8" stroke-width="1.40" stroke-linecap="butt"/>
<path d="M 188.00 519.00 A 36.00 36.00 0 0 1 152.00 483.00" fill="none" stroke="#9aa0a8" stroke-width="1.00"/>
<rect x="364.70" y="336.00" width="12.60" height="54.00" rx="0.00" fill="#ffffff" stroke="none" stroke-width="0.00" opacity="1.00"/>
<line x1="371.00" y1="390.00" x2="317.00" y2="390.00" stroke="#9aa0a8" stroke-width="1.40" stroke-linecap="butt"/>
<path d="M 371.00 336.00 A 54.00 54.00 0 0 0 317.00 390.00" fill="none" stroke="#9aa0a8" stroke-width="1.00"/>
<rect x="434.00" y="386.70" width="54.00" height="12.60" rx="0.00" fill="#ffffff" stroke="none" stroke-width="0.00" opacity="1.00"/>
<line x1="434.00" y1="393.00" x2="434.00" y2="339.00" stroke="#9aa0a8" stroke-width="1.40" stroke-linecap="butt"/>
<path d="M 488.00 393.00 A 54.00 54.00 0 0 0 434.00 339.00" fill="none" stroke="#9aa0a8" stroke-width="1.00"/>
<rect x="119.00" y="162.00" width="69.00" height="165.00" rx="0.00" fill="none" stroke="#c4c8cf" stroke-width="1.10" opacity="1.00"/>
<circle cx="153.50" cy="189.00" r="9.60" fill="none" stroke="#c4c8cf" stroke-width="0.90"/>
<circle cx="146.30" cy="223.80" r="5.40" fill="none" stroke="#c4c8cf" stroke-width="0.80"/>
<circle cx="160.70" cy="223.80" r="5.40" fill="none" stroke="#c4c8cf" stroke-width="0.80"/>
<circle cx="146.30" cy="238.20" r="5.40" fill="none" stroke="#c4c8cf" stroke-width="0.80"/>
<circle cx="160.70" cy="238.20" r="5.40" fill="none" stroke="#c4c8cf" stroke-width="0.80"/>
<rect x="218.00" y="210.00" width="78.00" height="54.00" rx="3.00" fill="none" stroke="#c4c8cf" stroke-width="1.10" opacity="1.00"/>
<rect x="215.00" y="223.80" width="2.40" height="26.40" rx="0.00" fill="#c4c8cf" stroke="none" stroke-width="0.00" opacity="1.00"/>
<rect x="299.00" y="223.80" width="2.40" height="26.40" rx="0.00" fill="#c4c8cf" stroke="none" stroke-width="0.00" opacity="1.00"/>
<rect x="240.20" y="207.00" width="33.60" height="2.40" rx="0.00" fill="#c4c8cf" stroke="none" stroke-width="0.00" opacity="1.00"/>
<rect x="240.20" y="267.00" width="33.60" height="2.40" rx="0.00" fill="#c4c8cf" stroke="none" stroke-width="0.00" opacity="1.00"/>
<rect x="125.00" y="411.00" width="126.00" height="66.00" rx="6.00" fill="none" stroke="#c4c8cf" stroke-width="1.10" opacity="1.00"/>
<rect x="131.00" y="417.00" width="114.00" height="51.00" rx="4.80" fill="none" stroke="#c4c8cf" stroke-width="0.80" opacity="1.00"/>
<rect x="422.00" y="429.00" width="108.00" height="264.00" rx="21.00" fill="#eef1f4" stroke="#c4c8cf" stroke-width="1.30" opacity="1.00"/>
<rect x="432.80" y="508.20" width="86.40" height="105.60" rx="12.00" fill="none" stroke="#c4c8cf" stroke-width="1.00" opacity="1.00"/>
<text x="476.00" y="565.00" font-family="Helvetica,Arial,sans-serif" font-size="9" fill="#aeb4bc" text-anchor="middle" font-weight="600" font-style="normal">AUTO</text>
<rect x="418.40" y="453.00" width="7.20" height="24.00" rx="0.00" fill="#c4c8cf" stroke="none" stroke-width="0.00" opacity="1.00"/>
<rect x="526.40" y="453.00" width="7.20" height="24.00" rx="0.00" fill="#c4c8cf" stroke="none" stroke-width="0.00" opacity="1.00"/>
<rect x="418.40" y="645.00" width="7.20" height="24.00" rx="0.00" fill="#c4c8cf" stroke="none" stroke-width="0.00" opacity="1.00"/>
<rect x="526.40" y="645.00" width="7.20" height="24.00" rx="0.00" fill="#c4c8cf" stroke="none" stroke-width="0.00" opacity="1.00"/>
<rect x="266.00" y="634.20" width="30.00" height="33.60" rx="0.00" fill="none" stroke="#c4c8cf" stroke-width="1.10" opacity="1.00"/>
<circle cx="281.00" cy="651.00" r="7.80" fill="none" stroke="#c4c8cf" stroke-width="0.90"/>
<rect x="302.00" y="634.20" width="30.00" height="33.60" rx="0.00" fill="none" stroke="#c4c8cf" stroke-width="1.10" opacity="1.00"/>
<circle cx="317.00" cy="651.00" r="7.80" fill="none" stroke="#c4c8cf" stroke-width="0.90"/>
<rect x="139.40" y="483.00" width="21.60" height="30.00" rx="7.20" fill="none" stroke="#c4c8cf" stroke-width="0.90" opacity="1.00"/>
<rect x="116.00" y="558.00" width="24.00" height="93.00" rx="0.00" fill="none" stroke="#c4c8cf" stroke-width="1.10" opacity="1.00"/>
<line x1="116.00" y1="589.00" x2="140.00" y2="589.00" stroke="#c4c8cf" stroke-width="0.60" stroke-linecap="butt"/>
<line x1="116.00" y1="620.00" x2="140.00" y2="620.00" stroke="#c4c8cf" stroke-width="0.60" stroke-linecap="butt"/>
<text x="237.50" y="340.00" font-family="Helvetica,Arial,sans-serif" font-size="13" fill="#1f2937" text-anchor="middle" font-weight="600" font-style="normal">Obývací pokoj</text>
<text x="237.50" y="356.00" font-family="Helvetica,Arial,sans-serif" font-size="13" fill="#1f2937" text-anchor="middle" font-weight="600" font-style="normal">+ kuchyně + jídelna</text>
<text x="237.50" y="373.00" font-family="Helvetica,Arial,sans-serif" font-size="12" fill="#4b5563" text-anchor="middle" font-weight="400" font-style="normal">24,2 m²</text>
<text x="150.20" y="501.00" font-family="Helvetica,Arial,sans-serif" font-size="10" fill="#1f2937" text-anchor="middle" font-weight="600" font-style="normal">WC</text>
<text x="150.20" y="518.00" font-family="Helvetica,Arial,sans-serif" font-size="9" fill="#4b5563" text-anchor="middle" font-weight="400" font-style="normal">1,7 m²</text>
<text x="176.00" y="636.00" font-family="Helvetica,Arial,sans-serif" font-size="12" fill="#1f2937" text-anchor="middle" font-weight="600" font-style="normal">Zádveří</text>
<text x="176.00" y="653.00" font-family="Helvetica,Arial,sans-serif" font-size="11" fill="#4b5563" text-anchor="middle" font-weight="400" font-style="normal">5,9 m²</text>
<text x="302.00" y="628.00" font-family="Helvetica,Arial,sans-serif" font-size="11" fill="#1f2937" text-anchor="middle" font-weight="600" font-style="normal">Technická</text>
<text x="302.00" y="644.00" font-family="Helvetica,Arial,sans-serif" font-size="11" fill="#1f2937" text-anchor="middle" font-weight="600" font-style="normal">místnost</text>
<text x="302.00" y="661.00" font-family="Helvetica,Arial,sans-serif" font-size="10" fill="#4b5563" text-anchor="middle" font-weight="400" font-style="normal">5,7 m²</text>
<text x="482.00" y="531.00" font-family="Helvetica,Arial,sans-serif" font-size="13" fill="#1f2937" text-anchor="middle" font-weight="600" font-style="normal">Garáž</text>
<text x="482.00" y="548.00" font-family="Helvetica,Arial,sans-serif" font-size="12" fill="#4b5563" text-anchor="middle" font-weight="400" font-style="normal">18,4 m²</text>
<text x="473.00" y="366.00" font-family="Helvetica,Arial,sans-serif" font-size="10" fill="#1f2937" text-anchor="middle" font-weight="600" font-style="normal">Chodba</text>
<text x="473.00" y="383.00" font-family="Helvetica,Arial,sans-serif" font-size="9" fill="#4b5563" text-anchor="middle" font-weight="400" font-style="normal">3,2 m²</text>
<text x="503.00" y="240.00" font-family="Helvetica,Arial,sans-serif" font-size="11" fill="#1f2937" text-anchor="middle" font-weight="600" font-style="normal">Schodiště</text>
<text x="503.00" y="257.00" font-family="Helvetica,Arial,sans-serif" font-size="10" fill="#4b5563" text-anchor="middle" font-weight="400" font-style="normal">7,0 m²</text>
<line x1="507.20" y1="333.00" x2="581.00" y2="333.00" stroke="#8a909a" stroke-width="0.90" stroke-linecap="butt"/>
<line x1="507.20" y1="321.33" x2="581.00" y2="321.33" stroke="#8a909a" stroke-width="0.90" stroke-linecap="butt"/>
<line x1="507.20" y1="309.67" x2="581.00" y2="309.67" stroke="#8a909a" stroke-width="0.90" stroke-linecap="butt"/>
<line x1="507.20" y1="298.00" x2="581.00" y2="298.00" stroke="#8a909a" stroke-width="0.90" stroke-linecap="butt"/>
<line x1="507.20" y1="286.33" x2="581.00" y2="286.33" stroke="#8a909a" stroke-width="0.90" stroke-linecap="butt"/>
<line x1="507.20" y1="274.67" x2="581.00" y2="274.67" stroke="#8a909a" stroke-width="0.90" stroke-linecap="butt"/>
<line x1="507.20" y1="263.00" x2="581.00" y2="263.00" stroke="#8a909a" stroke-width="0.90" stroke-linecap="butt"/>
<line x1="507.20" y1="251.33" x2="581.00" y2="251.33" stroke="#8a909a" stroke-width="0.90" stroke-linecap="butt"/>
<line x1="507.20" y1="239.67" x2="581.00" y2="239.67" stroke="#8a909a" stroke-width="0.90" stroke-linecap="butt"/>
<line x1="507.20" y1="228.00" x2="581.00" y2="228.00" stroke="#8a909a" stroke-width="0.90" stroke-linecap="butt"/>
<line x1="425.00" y1="228.00" x2="498.80" y2="228.00" stroke="#8a909a" stroke-width="0.90" stroke-linecap="butt"/>
<line x1="425.00" y1="239.67" x2="498.80" y2="239.67" stroke="#8a909a" stroke-width="0.90" stroke-linecap="butt"/>
<line x1="425.00" y1="251.33" x2="498.80" y2="251.33" stroke="#8a909a" stroke-width="0.90" stroke-linecap="butt"/>
<line x1="425.00" y1="263.00" x2="498.80" y2="263.00" stroke="#8a909a" stroke-width="0.90" stroke-linecap="butt"/>
<line x1="425.00" y1="274.67" x2="498.80" y2="274.67" stroke="#8a909a" stroke-width="0.90" stroke-linecap="butt"/>
<line x1="425.00" y1="286.33" x2="498.80" y2="286.33" stroke="#8a909a" stroke-width="0.90" stroke-linecap="butt"/>
<line x1="425.00" y1="298.00" x2="498.80" y2="298.00" stroke="#8a909a" stroke-width="0.90" stroke-linecap="butt"/>
<line x1="425.00" y1="309.67" x2="498.80" y2="309.67" stroke="#8a909a" stroke-width="0.90" stroke-linecap="butt"/>
<line x1="425.00" y1="321.33" x2="498.80" y2="321.33" stroke="#8a909a" stroke-width="0.90" stroke-linecap="butt"/>
<line x1="425.00" y1="333.00" x2="498.80" y2="333.00" stroke="#8a909a" stroke-width="0.90" stroke-linecap="butt"/>
<rect x="498.80" y="228.00" width="8.40" height="105.00" rx="0.00" fill="none" stroke="#8a909a" stroke-width="0.90" opacity="1.00"/>
<line x1="543.50" y1="315.00" x2="543.50" y2="237.00" stroke="#5b6370" stroke-width="1.30" stroke-linecap="butt"/>
<path d="M 537.50 247.20 L 543.50 234.00 L 549.50 247.20" fill="none" stroke="#5b6370" stroke-width="1.30"/>
<circle cx="543.50" cy="315.00" r="2.20" fill="#5b6370" stroke="#5b6370" stroke-width="1.00"/>
<line x1="95.00" y1="105.00" x2="605.00" y2="105.00" stroke="#6b7280" stroke-width="0.80" stroke-linecap="butt"/>
<line x1="95.00" y1="101.00" x2="95.00" y2="109.00" stroke="#6b7280" stroke-width="0.80" stroke-linecap="butt"/>
<line x1="605.00" y1="101.00" x2="605.00" y2="109.00" stroke="#6b7280" stroke-width="0.80" stroke-linecap="butt"/>
<text x="350.00" y="101.00" font-family="Helvetica,Arial,sans-serif" font-size="12" fill="#6b7280" text-anchor="middle" font-weight="400" font-style="normal">8,50 m</text>
<line x1="65.00" y1="135.00" x2="65.00" y2="735.00" stroke="#6b7280" stroke-width="0.80" stroke-linecap="butt"/>
<line x1="61.00" y1="135.00" x2="69.00" y2="135.00" stroke="#6b7280" stroke-width="0.80" stroke-linecap="butt"/>
<line x1="61.00" y1="735.00" x2="69.00" y2="735.00" stroke="#6b7280" stroke-width="0.80" stroke-linecap="butt"/>
<text x="59.00" y="435.00" font-family="Helvetica,Arial,sans-serif" font-size="12" fill="#6b7280" text-anchor="middle" transform="rotate(-90 59.00 435.00)">10,00 m</text>
<text x="350.00" y="785.00" font-family="Helvetica,Arial,sans-serif" font-size="17" fill="#1f2937" text-anchor="middle" font-weight="700" font-style="normal" letter-spacing="1">PŘÍZEMÍ  (1. NP)</text>
<rect x="735.00" y="135.00" width="510.00" height="600.00" rx="0.00" fill="#3f3f46" stroke="none" stroke-width="0.00" opacity="1.00"/>
<rect x="753.00" y="153.00" width="474.00" height="564.00" rx="0.00" fill="#ffffff" stroke="none" stroke-width="0.00" opacity="1.00"/>
<line x1="744.00" y1="141.00" x2="744.00" y2="729.00" stroke="#6f6f78" stroke-width="0.80" stroke-linecap="butt" stroke-dasharray="5,4"/>
<line x1="1236.00" y1="141.00" x2="1236.00" y2="729.00" stroke="#6f6f78" stroke-width="0.80" stroke-linecap="butt" stroke-dasharray="5,4"/>
<rect x="1002.00" y="153.00" width="18.00" height="564.00" rx="0.00" fill="#3f3f46" stroke="none" stroke-width="0.00" opacity="1.00"/>
<rect x="753.00" y="397.50" width="258.00" height="9.00" rx="0.00" fill="#3f3f46" stroke="none" stroke-width="0.00" opacity="1.00"/>
<rect x="874.50" y="153.00" width="9.00" height="249.00" rx="0.00" fill="#3f3f46" stroke="none" stroke-width="0.00" opacity="1.00"/>
<rect x="753.00" y="496.50" width="258.00" height="9.00" rx="0.00" fill="#3f3f46" stroke="none" stroke-width="0.00" opacity="1.00"/>
<rect x="1011.00" y="388.50" width="216.00" height="9.00" rx="0.00" fill="#3f3f46" stroke="none" stroke-width="0.00" opacity="1.00"/>
<rect x="786.00" y="135.00" width="60.00" height="18.00" rx="0.00" fill="#ffffff" stroke="none" stroke-width="0.00" opacity="1.00"/>
<line x1="786.00" y1="144.00" x2="846.00" y2="144.00" stroke="#7fb2d6" stroke-width="2.20" stroke-linecap="butt"/>
<line x1="786.00" y1="135.00" x2="846.00" y2="135.00" stroke="#3f3f46" stroke-width="1.00" stroke-linecap="butt"/>
<line x1="786.00" y1="153.00" x2="846.00" y2="153.00" stroke="#3f3f46" stroke-width="1.00" stroke-linecap="butt"/>
<rect x="903.00" y="135.00" width="72.00" height="18.00" rx="0.00" fill="#ffffff" stroke="none" stroke-width="0.00" opacity="1.00"/>
<line x1="903.00" y1="144.00" x2="975.00" y2="144.00" stroke="#7fb2d6" stroke-width="2.20" stroke-linecap="butt"/>
<line x1="903.00" y1="135.00" x2="975.00" y2="135.00" stroke="#3f3f46" stroke-width="1.00" stroke-linecap="butt"/>
<line x1="903.00" y1="153.00" x2="975.00" y2="153.00" stroke="#3f3f46" stroke-width="1.00" stroke-linecap="butt"/>
<rect x="1077.00" y="135.00" width="84.00" height="18.00" rx="0.00" fill="#ffffff" stroke="none" stroke-width="0.00" opacity="1.00"/>
<line x1="1077.00" y1="144.00" x2="1161.00" y2="144.00" stroke="#7fb2d6" stroke-width="2.20" stroke-linecap="butt"/>
<line x1="1077.00" y1="135.00" x2="1161.00" y2="135.00" stroke="#3f3f46" stroke-width="1.00" stroke-linecap="butt"/>
<line x1="1077.00" y1="153.00" x2="1161.00" y2="153.00" stroke="#3f3f46" stroke-width="1.00" stroke-linecap="butt"/>
<rect x="831.00" y="717.00" width="96.00" height="18.00" rx="0.00" fill="#ffffff" stroke="none" stroke-width="0.00" opacity="1.00"/>
<line x1="831.00" y1="726.00" x2="927.00" y2="726.00" stroke="#7fb2d6" stroke-width="2.20" stroke-linecap="butt"/>
<line x1="831.00" y1="717.00" x2="927.00" y2="717.00" stroke="#3f3f46" stroke-width="1.00" stroke-linecap="butt"/>
<line x1="831.00" y1="735.00" x2="927.00" y2="735.00" stroke="#3f3f46" stroke-width="1.00" stroke-linecap="butt"/>
<rect x="1059.00" y="717.00" width="120.00" height="18.00" rx="0.00" fill="#ffffff" stroke="none" stroke-width="0.00" opacity="1.00"/>
<line x1="1059.00" y1="726.00" x2="1179.00" y2="726.00" stroke="#7fb2d6" stroke-width="2.20" stroke-linecap="butt"/>
<line x1="1059.00" y1="717.00" x2="1179.00" y2="717.00" stroke="#3f3f46" stroke-width="1.00" stroke-linecap="butt"/>
<line x1="1059.00" y1="735.00" x2="1179.00" y2="735.00" stroke="#3f3f46" stroke-width="1.00" stroke-linecap="butt"/>
<rect x="789.00" y="395.70" width="48.00" height="12.60" rx="0.00" fill="#ffffff" stroke="none" stroke-width="0.00" opacity="1.00"/>
<line x1="789.00" y1="402.00" x2="789.00" y2="354.00" stroke="#9aa0a8" stroke-width="1.40" stroke-linecap="butt"/>
<path d="M 837.00 402.00 A 48.00 48.00 0 0 0 789.00 354.00" fill="none" stroke="#9aa0a8" stroke-width="1.00"/>
<rect x="909.00" y="395.70" width="48.00" height="12.60" rx="0.00" fill="#ffffff" stroke="none" stroke-width="0.00" opacity="1.00"/>
<line x1="957.00" y1="402.00" x2="957.00" y2="354.00" stroke="#9aa0a8" stroke-width="1.40" stroke-linecap="butt"/>
<path d="M 909.00 402.00 A 48.00 48.00 0 0 1 957.00 354.00" fill="none" stroke="#9aa0a8" stroke-width="1.00"/>
<rect x="852.00" y="494.70" width="54.00" height="12.60" rx="0.00" fill="#ffffff" stroke="none" stroke-width="0.00" opacity="1.00"/>
<line x1="852.00" y1="501.00" x2="852.00" y2="555.00" stroke="#9aa0a8" stroke-width="1.40" stroke-linecap="butt"/>
<path d="M 906.00 501.00 A 54.00 54.00 0 0 1 852.00 555.00" fill="none" stroke="#9aa0a8" stroke-width="1.00"/>
<rect x="1004.70" y="426.00" width="12.60" height="54.00" rx="0.00" fill="#ffffff" stroke="none" stroke-width="0.00" opacity="1.00"/>
<line x1="1011.00" y1="426.00" x2="1065.00" y2="426.00" stroke="#9aa0a8" stroke-width="1.40" stroke-linecap="butt"/>
<path d="M 1011.00 480.00 A 54.00 54.00 0 0 0 1065.00 426.00" fill="none" stroke="#9aa0a8" stroke-width="1.00"/>
<rect x="1004.70" y="336.00" width="12.60" height="54.00" rx="0.00" fill="#ffffff" stroke="none" stroke-width="0.00" opacity="1.00"/>
<line x1="1011.00" y1="390.00" x2="957.00" y2="390.00" stroke="#9aa0a8" stroke-width="1.40" stroke-linecap="butt"/>
<path d="M 1011.00 336.00 A 54.00 54.00 0 0 0 957.00 390.00" fill="none" stroke="#9aa0a8" stroke-width="1.00"/>
<rect x="759.00" y="162.00" width="99.00" height="37.80" rx="4.80" fill="none" stroke="#c4c8cf" stroke-width="1.10" opacity="1.00"/>
<circle cx="847.20" cy="180.60" r="3.00" fill="none" stroke="#c4c8cf" stroke-width="0.80"/>
<rect x="840.00" y="165.00" width="27.00" height="30.00" rx="3.60" fill="none" stroke="#c4c8cf" stroke-width="0.90" opacity="1.00"/>
<rect x="843.00" y="343.80" width="24.00" height="30.00" rx="7.20" fill="none" stroke="#c4c8cf" stroke-width="0.90" opacity="1.00"/>
<rect x="759.00" y="324.00" width="54.00" height="54.00" rx="0.00" fill="none" stroke="#c4c8cf" stroke-width="1.10" opacity="1.00"/>
<circle cx="786.00" cy="351.00" r="3.00" fill="none" stroke="#c4c8cf" stroke-width="0.80"/>
<rect x="888.00" y="168.00" width="60.00" height="120.00" rx="3.00" fill="none" stroke="#c4c8cf" stroke-width="1.10" opacity="1.00"/>
<rect x="892.80" y="172.80" width="50.40" height="21.00" rx="3.00" fill="none" stroke="#c4c8cf" stroke-width="0.90" opacity="1.00"/>
<rect x="768.00" y="618.00" width="60.00" height="90.00" rx="3.00" fill="none" stroke="#c4c8cf" stroke-width="1.10" opacity="1.00"/>
<rect x="772.80" y="682.20" width="50.40" height="21.00" rx="3.00" fill="none" stroke="#c4c8cf" stroke-width="0.90" opacity="1.00"/>
<rect x="948.00" y="513.00" width="51.00" height="186.00" rx="0.00" fill="none" stroke="#c4c8cf" stroke-width="1.10" opacity="1.00"/>
<line x1="948.00" y1="544.00" x2="999.00" y2="544.00" stroke="#c4c8cf" stroke-width="0.60" stroke-linecap="butt"/>
<line x1="948.00" y1="575.00" x2="999.00" y2="575.00" stroke="#c4c8cf" stroke-width="0.60" stroke-linecap="butt"/>
<line x1="948.00" y1="606.00" x2="999.00" y2="606.00" stroke="#c4c8cf" stroke-width="0.60" stroke-linecap="butt"/>
<line x1="948.00" y1="637.00" x2="999.00" y2="637.00" stroke="#c4c8cf" stroke-width="0.60" stroke-linecap="butt"/>
<line x1="948.00" y1="668.00" x2="999.00" y2="668.00" stroke="#c4c8cf" stroke-width="0.60" stroke-linecap="butt"/>
<rect x="1098.00" y="582.00" width="120.00" height="126.00" rx="3.00" fill="none" stroke="#c4c8cf" stroke-width="1.10" opacity="1.00"/>
<rect x="1102.80" y="586.80" width="110.40" height="21.00" rx="3.00" fill="none" stroke="#c4c8cf" stroke-width="0.90" opacity="1.00"/>
<rect x="1020.00" y="516.00" width="75.00" height="36.00" rx="0.00" fill="none" stroke="#c4c8cf" stroke-width="1.10" opacity="1.00"/>
<line x1="1057.50" y1="516.00" x2="1057.50" y2="552.00" stroke="#c4c8cf" stroke-width="0.60" stroke-linecap="butt"/>
<text x="816.00" y="272.50" font-family="Helvetica,Arial,sans-serif" font-size="11" fill="#1f2937" text-anchor="middle" font-weight="600" font-style="normal">Koupelna</text>
<text x="816.00" y="288.50" font-family="Helvetica,Arial,sans-serif" font-size="11" fill="#1f2937" text-anchor="middle" font-weight="600" font-style="normal">+ WC</text>
<text x="816.00" y="305.50" font-family="Helvetica,Arial,sans-serif" font-size="10" fill="#4b5563" text-anchor="middle" font-weight="400" font-style="normal">8,7 m²</text>
<text x="940.50" y="280.50" font-family="Helvetica,Arial,sans-serif" font-size="12" fill="#1f2937" text-anchor="middle" font-weight="600" font-style="normal">Pokoj</text>
<text x="940.50" y="297.50" font-family="Helvetica,Arial,sans-serif" font-size="11" fill="#4b5563" text-anchor="middle" font-weight="400" font-style="normal">8,5 m²</text>
<text x="882.00" y="456.00" font-family="Helvetica,Arial,sans-serif" font-size="13" fill="#1f2937" text-anchor="middle" font-weight="600" font-style="normal">Chodba</text>
<text x="882.00" y="473.00" font-family="Helvetica,Arial,sans-serif" font-size="12" fill="#4b5563" text-anchor="middle" font-weight="400" font-style="normal">7,5 m²</text>
<text x="1143.00" y="240.00" font-family="Helvetica,Arial,sans-serif" font-size="11" fill="#1f2937" text-anchor="middle" font-weight="600" font-style="normal">Schodiště</text>
<text x="1143.00" y="257.00" font-family="Helvetica,Arial,sans-serif" font-size="10" fill="#4b5563" text-anchor="middle" font-weight="400" font-style="normal">7,0 m²</text>
<text x="877.50" y="612.00" font-family="Helvetica,Arial,sans-serif" font-size="13" fill="#1f2937" text-anchor="middle" font-weight="600" font-style="normal">Pokoj</text>
<text x="877.50" y="629.00" font-family="Helvetica,Arial,sans-serif" font-size="12" fill="#4b5563" text-anchor="middle" font-weight="400" font-style="normal">14,9 m²</text>
<text x="1119.00" y="558.00" font-family="Helvetica,Arial,sans-serif" font-size="14" fill="#1f2937" text-anchor="middle" font-weight="600" font-style="normal">Ložnice</text>
<text x="1119.00" y="575.00" font-family="Helvetica,Arial,sans-serif" font-size="13" fill="#4b5563" text-anchor="middle" font-weight="400" font-style="normal">19,4 m²</text>
<line x1="1147.20" y1="333.00" x2="1221.00" y2="333.00" stroke="#8a909a" stroke-width="0.90" stroke-linecap="butt"/>
<line x1="1147.20" y1="321.33" x2="1221.00" y2="321.33" stroke="#8a909a" stroke-width="0.90" stroke-linecap="butt"/>
<line x1="1147.20" y1="309.67" x2="1221.00" y2="309.67" stroke="#8a909a" stroke-width="0.90" stroke-linecap="butt"/>
<line x1="1147.20" y1="298.00" x2="1221.00" y2="298.00" stroke="#8a909a" stroke-width="0.90" stroke-linecap="butt"/>
<line x1="1147.20" y1="286.33" x2="1221.00" y2="286.33" stroke="#8a909a" stroke-width="0.90" stroke-linecap="butt"/>
<line x1="1147.20" y1="274.67" x2="1221.00" y2="274.67" stroke="#8a909a" stroke-width="0.90" stroke-linecap="butt"/>
<line x1="1147.20" y1="263.00" x2="1221.00" y2="263.00" stroke="#8a909a" stroke-width="0.90" stroke-linecap="butt"/>
<line x1="1147.20" y1="251.33" x2="1221.00" y2="251.33" stroke="#8a909a" stroke-width="0.90" stroke-linecap="butt"/>
<line x1="1147.20" y1="239.67" x2="1221.00" y2="239.67" stroke="#8a909a" stroke-width="0.90" stroke-linecap="butt"/>
<line x1="1147.20" y1="228.00" x2="1221.00" y2="228.00" stroke="#8a909a" stroke-width="0.90" stroke-linecap="butt"/>
<line x1="1065.00" y1="228.00" x2="1138.80" y2="228.00" stroke="#8a909a" stroke-width="0.90" stroke-linecap="butt"/>
<line x1="1065.00" y1="239.67" x2="1138.80" y2="239.67" stroke="#8a909a" stroke-width="0.90" stroke-linecap="butt"/>
<line x1="1065.00" y1="251.33" x2="1138.80" y2="251.33" stroke="#8a909a" stroke-width="0.90" stroke-linecap="butt"/>
<line x1="1065.00" y1="263.00" x2="1138.80" y2="263.00" stroke="#8a909a" stroke-width="0.90" stroke-linecap="butt"/>
<line x1="1065.00" y1="274.67" x2="1138.80" y2="274.67" stroke="#8a909a" stroke-width="0.90" stroke-linecap="butt"/>
<line x1="1065.00" y1="286.33" x2="1138.80" y2="286.33" stroke="#8a909a" stroke-width="0.90" stroke-linecap="butt"/>
<line x1="1065.00" y1="298.00" x2="1138.80" y2="298.00" stroke="#8a909a" stroke-width="0.90" stroke-linecap="butt"/>
<line x1="1065.00" y1="309.67" x2="1138.80" y2="309.67" stroke="#8a909a" stroke-width="0.90" stroke-linecap="butt"/>
<line x1="1065.00" y1="321.33" x2="1138.80" y2="321.33" stroke="#8a909a" stroke-width="0.90" stroke-linecap="butt"/>
<line x1="1065.00" y1="333.00" x2="1138.80" y2="333.00" stroke="#8a909a" stroke-width="0.90" stroke-linecap="butt"/>
<rect x="1138.80" y="228.00" width="8.40" height="105.00" rx="0.00" fill="none" stroke="#8a909a" stroke-width="0.90" opacity="1.00"/>
<line x1="1102.50" y1="237.00" x2="1102.50" y2="315.00" stroke="#5b6370" stroke-width="1.30" stroke-linecap="butt"/>
<path d="M 1096.50 303.00 L 1102.50 316.20 L 1108.50 303.00" fill="none" stroke="#5b6370" stroke-width="1.30"/>
<line x1="1062.00" y1="333.00" x2="1224.00" y2="333.00" stroke="#8a909a" stroke-width="1.40" stroke-linecap="butt"/>
<line x1="735.00" y1="105.00" x2="1245.00" y2="105.00" stroke="#6b7280" stroke-width="0.80" stroke-linecap="butt"/>
<line x1="735.00" y1="101.00" x2="735.00" y2="109.00" stroke="#6b7280" stroke-width="0.80" stroke-linecap="butt"/>
<line x1="1245.00" y1="101.00" x2="1245.00" y2="109.00" stroke="#6b7280" stroke-width="0.80" stroke-linecap="butt"/>
<text x="990.00" y="101.00" font-family="Helvetica,Arial,sans-serif" font-size="12" fill="#6b7280" text-anchor="middle" font-weight="400" font-style="normal">8,50 m</text>
<line x1="705.00" y1="135.00" x2="705.00" y2="735.00" stroke="#6b7280" stroke-width="0.80" stroke-linecap="butt"/>
<line x1="701.00" y1="135.00" x2="709.00" y2="135.00" stroke="#6b7280" stroke-width="0.80" stroke-linecap="butt"/>
<line x1="701.00" y1="735.00" x2="709.00" y2="735.00" stroke="#6b7280" stroke-width="0.80" stroke-linecap="butt"/>
<text x="699.00" y="435.00" font-family="Helvetica,Arial,sans-serif" font-size="12" fill="#6b7280" text-anchor="middle" transform="rotate(-90 699.00 435.00)">10,00 m</text>
<text x="990.00" y="785.00" font-family="Helvetica,Arial,sans-serif" font-size="17" fill="#1f2937" text-anchor="middle" font-weight="700" font-style="normal" letter-spacing="1">PATRO  (2. NP)</text>
<g transform="translate(321.0,855)"><rect x="60.00" y="0.00" width="612.00" height="96.00" rx="0.00" fill="#cfe3c4" stroke="none" stroke-width="0.00" opacity="0.50"/>
<rect x="24.00" y="456.00" width="684.00" height="72.00" rx="0.00" fill="#e7e7e4" stroke="none" stroke-width="0.00" opacity="1.00"/>
<text x="366.00" y="496.00" font-family="Helvetica,Arial,sans-serif" font-size="11" fill="#9aa0a8" text-anchor="middle" font-weight="600" font-style="normal" letter-spacing="1">PŘÍJEZDOVÁ KOMUNIKACE</text>
<rect x="60.00" y="96.00" width="204.00" height="240.00" rx="0.00" fill="#eef0ee" stroke="#3f3f46" stroke-width="2.00" opacity="1.00"/>
<rect x="170.40" y="199.20" width="81.60" height="129.60" rx="0.00" fill="#f3f1ea" stroke="#b9bcc2" stroke-width="1.00" opacity="1.00"/>
<text x="211.20" y="264.00" font-family="Helvetica,Arial,sans-serif" font-size="12" fill="#9aa0a8" text-anchor="middle" font-weight="700" font-style="normal">G</text>
<line x1="60.00" y1="261.60" x2="166.80" y2="261.60" stroke="#b9bcc2" stroke-width="0.80" stroke-linecap="butt"/>
<text x="162.00" y="144.00" font-family="Helvetica,Arial,sans-serif" font-size="15" fill="#2b3340" text-anchor="middle" font-weight="800" font-style="normal">DŮM 10</text>
<text x="162.00" y="162.00" font-family="Helvetica,Arial,sans-serif" font-size="11" fill="#5b6370" text-anchor="middle" font-weight="400" font-style="normal">85,00 m²</text>
<rect x="170.40" y="336.00" width="81.60" height="120.00" rx="0.00" fill="#fbfbfa" stroke="#9aa0a8" stroke-width="1.00" opacity="1.00" stroke-dasharray="5,4"/>
<rect x="188.40" y="348.00" width="43.20" height="93.60" rx="7.20" fill="#dde6ee" stroke="#8a909a" stroke-width="1.20" opacity="1.00"/>
<rect x="193.20" y="376.80" width="33.60" height="38.40" rx="3.60" fill="none" stroke="#8a909a" stroke-width="0.90" opacity="1.00"/>
<circle cx="98.40" cy="374.40" r="19.20" fill="#cfe3c4" stroke="#9bbf8a" stroke-width="1.00"/>
<circle cx="98.40" cy="374.40" r="11.52" fill="none" stroke="#9bbf8a" stroke-width="0.80"/>
<rect x="264.00" y="96.00" width="204.00" height="240.00" rx="0.00" fill="#e4ecf5" stroke="#3f3f46" stroke-width="2.00" opacity="1.00"/>
<rect x="374.40" y="199.20" width="81.60" height="129.60" rx="0.00" fill="#f3f1ea" stroke="#b9bcc2" stroke-width="1.00" opacity="1.00"/>
<text x="415.20" y="264.00" font-family="Helvetica,Arial,sans-serif" font-size="12" fill="#9aa0a8" text-anchor="middle" font-weight="700" font-style="normal">G</text>
<line x1="264.00" y1="261.60" x2="370.80" y2="261.60" stroke="#b9bcc2" stroke-width="0.80" stroke-linecap="butt"/>
<text x="366.00" y="144.00" font-family="Helvetica,Arial,sans-serif" font-size="15" fill="#1f4e79" text-anchor="middle" font-weight="800" font-style="normal">DŮM 11</text>
<text x="366.00" y="162.00" font-family="Helvetica,Arial,sans-serif" font-size="11" fill="#5b6370" text-anchor="middle" font-weight="400" font-style="normal">85,00 m²</text>
<text x="319.20" y="321.60" font-family="Helvetica,Arial,sans-serif" font-size="10" fill="#1f4e79" text-anchor="middle" font-weight="400" font-style="italic">(řešená jednotka)</text>
<rect x="374.40" y="336.00" width="81.60" height="120.00" rx="0.00" fill="#fbfbfa" stroke="#9aa0a8" stroke-width="1.00" opacity="1.00" stroke-dasharray="5,4"/>
<rect x="392.40" y="348.00" width="43.20" height="93.60" rx="7.20" fill="#dde6ee" stroke="#8a909a" stroke-width="1.20" opacity="1.00"/>
<rect x="397.20" y="376.80" width="33.60" height="38.40" rx="3.60" fill="none" stroke="#8a909a" stroke-width="0.90" opacity="1.00"/>
<circle cx="302.40" cy="374.40" r="19.20" fill="#cfe3c4" stroke="#9bbf8a" stroke-width="1.00"/>
<circle cx="302.40" cy="374.40" r="11.52" fill="none" stroke="#9bbf8a" stroke-width="0.80"/>
<rect x="468.00" y="96.00" width="204.00" height="240.00" rx="0.00" fill="#eef0ee" stroke="#3f3f46" stroke-width="2.00" opacity="1.00"/>
<rect x="578.40" y="199.20" width="81.60" height="129.60" rx="0.00" fill="#f3f1ea" stroke="#b9bcc2" stroke-width="1.00" opacity="1.00"/>
<text x="619.20" y="264.00" font-family="Helvetica,Arial,sans-serif" font-size="12" fill="#9aa0a8" text-anchor="middle" font-weight="700" font-style="normal">G</text>
<line x1="468.00" y1="261.60" x2="574.80" y2="261.60" stroke="#b9bcc2" stroke-width="0.80" stroke-linecap="butt"/>
<text x="570.00" y="144.00" font-family="Helvetica,Arial,sans-serif" font-size="15" fill="#2b3340" text-anchor="middle" font-weight="800" font-style="normal">DŮM 12</text>
<text x="570.00" y="162.00" font-family="Helvetica,Arial,sans-serif" font-size="11" fill="#5b6370" text-anchor="middle" font-weight="400" font-style="normal">85,00 m²</text>
<rect x="578.40" y="336.00" width="81.60" height="120.00" rx="0.00" fill="#fbfbfa" stroke="#9aa0a8" stroke-width="1.00" opacity="1.00" stroke-dasharray="5,4"/>
<rect x="596.40" y="348.00" width="43.20" height="93.60" rx="7.20" fill="#dde6ee" stroke="#8a909a" stroke-width="1.20" opacity="1.00"/>
<rect x="601.20" y="376.80" width="33.60" height="38.40" rx="3.60" fill="none" stroke="#8a909a" stroke-width="0.90" opacity="1.00"/>
<circle cx="506.40" cy="374.40" r="19.20" fill="#cfe3c4" stroke="#9bbf8a" stroke-width="1.00"/>
<circle cx="506.40" cy="374.40" r="11.52" fill="none" stroke="#9bbf8a" stroke-width="0.80"/>
<line x1="264.00" y1="96.00" x2="264.00" y2="336.00" stroke="#3f3f46" stroke-width="3.00" stroke-linecap="butt"/>
<line x1="468.00" y1="96.00" x2="468.00" y2="336.00" stroke="#3f3f46" stroke-width="3.00" stroke-linecap="butt"/>
<line x1="60.00" y1="81.60" x2="672.00" y2="81.60" stroke="#6b7280" stroke-width="0.80" stroke-linecap="butt"/>
<line x1="60.00" y1="77.60" x2="60.00" y2="85.60" stroke="#6b7280" stroke-width="0.80" stroke-linecap="butt"/>
<line x1="672.00" y1="77.60" x2="672.00" y2="85.60" stroke="#6b7280" stroke-width="0.80" stroke-linecap="butt"/>
<text x="366.00" y="77.60" font-family="Helvetica,Arial,sans-serif" font-size="12" fill="#6b7280" text-anchor="middle" font-weight="400" font-style="normal">25,50 m  (3 × 8,50 m)</text>
<text x="366.00" y="-12.00" font-family="Helvetica,Arial,sans-serif" font-size="15" fill="#1f2937" text-anchor="middle" font-weight="700" font-style="normal" letter-spacing="1">SITUACE — TROJDOMEK  (3 jednotky, garáž + sjezd, zeleň)</text>
<text x="679.20" y="144.00" font-family="Helvetica,Arial,sans-serif" font-size="10" fill="#7a8a6a" text-anchor="start" font-weight="400" font-style="normal">ZAHRADA</text></g>
<rect x="70.00" y="1449.00" width="1155.00" height="122.00" rx="8.00" fill="#ffffff" stroke="#e4e4e7" stroke-width="1.00" opacity="1.00"/>
<text x="92.00" y="1473.00" font-family="Helvetica,Arial,sans-serif" font-size="13" fill="#1f2937" text-anchor="start" font-weight="700" font-style="normal">LEGENDA</text>
<rect x="212.00" y="1464.00" width="34.00" height="10.00" rx="0.00" fill="#3f3f46" stroke="none" stroke-width="0.00" opacity="1.00"/>
<text x="256.00" y="1475.00" font-family="Helvetica,Arial,sans-serif" font-size="11" fill="#1f2937" text-anchor="start" font-weight="400" font-style="normal">nosné / dělící zdivo</text>
<rect x="482.00" y="1464.00" width="34.00" height="10.00" rx="0.00" fill="#3f3f46" stroke="none" stroke-width="0.00" opacity="1.00"/>
<line x1="499.00" y1="1464.00" x2="499.00" y2="1474.00" stroke="#cfd2d6" stroke-width="1.20" stroke-linecap="butt" stroke-dasharray="3,3"/>
<text x="526.00" y="1475.00" font-family="Helvetica,Arial,sans-serif" font-size="11" fill="#1f2937" text-anchor="start" font-weight="400" font-style="normal">mezibytová akustická stěna</text>
<rect x="752.00" y="1464.00" width="34.00" height="10.00" rx="0.00" fill="#ffffff" stroke="#3f3f46" stroke-width="0.80" opacity="1.00"/>
<line x1="752.00" y1="1469.00" x2="786.00" y2="1469.00" stroke="#7fb2d6" stroke-width="2.20" stroke-linecap="butt"/>
<text x="796.00" y="1475.00" font-family="Helvetica,Arial,sans-serif" font-size="11" fill="#1f2937" text-anchor="start" font-weight="400" font-style="normal">okno / prosklení</text>
<path d="M 1022 1474.0 A 22 22 0 0 0 1044 1452.0" fill="none" stroke="#9aa0a8" stroke-width="1.00"/>
<line x1="1022.00" y1="1474.00" x2="1022.00" y2="1452.00" stroke="#9aa0a8" stroke-width="1.40" stroke-linecap="butt"/>
<text x="1066.00" y="1475.00" font-family="Helvetica,Arial,sans-serif" font-size="11" fill="#1f2937" text-anchor="start" font-weight="400" font-style="normal">dveře</text>
<rect x="1292.00" y="1462.00" width="30.00" height="14.00" rx="3.00" fill="none" stroke="#c4c8cf" stroke-width="1.10" opacity="1.00"/>
<text x="1336.00" y="1475.00" font-family="Helvetica,Arial,sans-serif" font-size="11" fill="#1f2937" text-anchor="start" font-weight="400" font-style="normal">zařízení</text>
<text x="92.00" y="1499.00" font-family="Helvetica,Arial,sans-serif" font-size="10.5" fill="#52525b" text-anchor="start" font-weight="400" font-style="normal">Přízemí (1. NP): obývací pokoj s kuchyní a jídelnou 24,2 · garáž 18,4 · schodiště 7,0 · zádveří 5,9 · technická m. 5,7 · chodba 3,2 · WC 1,7 m²</text>
<text x="92.00" y="1514.00" font-family="Helvetica,Arial,sans-serif" font-size="10.5" fill="#52525b" text-anchor="start" font-weight="400" font-style="normal">Patro (2. NP): ložnice 19,4 · pokoj 14,9 · pokoj 8,5 · koupelna s WC 8,7 · schodiště 7,0 · chodba 7,5 m²</text>
<text x="92.00" y="1529.00" font-family="Helvetica,Arial,sans-serif" font-size="10.5" fill="#52525b" text-anchor="start" font-weight="400" font-style="normal">Konstrukce: obvodové i mezibytové (akustické) stěny 300 mm (R'w ≥ 53 dB, ČSN 73 0532), příčky 150 mm · konstrukční výška 3,0 m · garáž 3,4 × 5,4 m, vrata 2,5 m (ČSN 73 6058).</text>
<text x="92.00" y="1544.00" font-family="Helvetica,Arial,sans-serif" font-size="10.5" fill="#52525b" text-anchor="start" font-weight="400" font-style="normal">Pozn.: čelo 8,5 m s vnitřní garáží je úsporově hraniční (garáž ubírá ~40 % šířky) — pro komfortnější dispozici je vhodnější čelo ~10 m nebo venkovní stání.</text>
</svg>