<svg xmlns="http://www.w3.org/2000/svg" viewBox="0 0 1480 660" width="1480" height="660" font-family="system-ui,Arial,sans-serif">
<rect x="0" y="0" width="1480" height="660" fill="#0e151c"/>
<text x="24" y="34" fill="#e7edf3" font-size="22" font-weight="700">Velikost 5 plemen vedle člověka (175 cm)</text>
<text x="24" y="56" fill="#9fb0c0" font-size="14">Siluety jsou ve stejném měřítku · přerušované čáry = výška kolen (~50 cm) a poloviny lýtka (~25 cm)</text>
<line x1="20" y1="600" x2="1460" y2="600" stroke="#3a4a59"></line><line x1="60" y1="455" x2="1460" y2="455" stroke="rgba(78,161,255,.45)" stroke-dasharray="5 6"></line><text x="1455" y="450" fill="rgba(120,180,255,.85)" font-size="11" font-family="system-ui,sans-serif" text-anchor="end">Výška kolen ~50 cm</text><line x1="60" y1="527.5" x2="1460" y2="527.5" stroke="rgba(78,161,255,.45)" stroke-dasharray="5 6"></line><text x="1455" y="522.5" fill="rgba(120,180,255,.85)" font-size="11" font-family="system-ui,sans-serif" text-anchor="end">Polovina lýtka ~25 cm</text><rect x="63" y="350.6" width="12" height="249.4" fill="#52647a" rx="6"></rect><rect x="81" y="350.6" width="12" height="249.4" fill="#52647a" rx="6"></rect><rect x="61" y="594" width="17" height="6" fill="#52647a" rx="2"></rect><rect x="79" y="594" width="17" height="6" fill="#52647a" rx="2"></rect><path d="M61,165 L95,165 L93,257.8 L94,344.8 L62,344.8 L63,257.8 Z" fill="#52647a"></path><rect x="53" y="170.8" width="9" height="174" fill="#52647a" rx="5"></rect><rect x="94" y="170.8" width="9" height="174" fill="#52647a" rx="5"></rect><rect x="73" y="141.8" width="10" height="23.2" fill="#52647a" rx="2"></rect><ellipse cx="78" cy="112.80000000000001" rx="12" ry="14" fill="#52647a"></ellipse><text x="78" y="84.5" fill="#cdd9e6" font-size="12" font-family="system-ui,sans-serif" text-anchor="middle" font-weight="600">Člověk 175 cm</text><g transform="translate(264,460.8) scale(0.8458333333333333,0.9279999999999999)"><path d="M40,52 C36,43 41,30 54,30 C84,24 116,25 146,23 C160,22 170,20 180,19 C186,13 195,9 205,11 C214,12 218,17 220,24 C230,26 238,32 242,42 C244,49 236,51 230,49 C220,46 211,48 205,52 C198,56 194,64 192,77 L192,140 C192,147 181,147 181,140 L180,93 C159,98 137,98 117,95 C116,113 114,128 113,140 C113,147 102,147 102,140 L101,91 C84,89 66,86 54,79 C50,99 47,121 46,140 C46,147 35,147 35,140 L34,73 C28,67 28,58 40,52 Z" fill="#d9743b"></path></g><text x="365.5" y="622" fill="#e7edf3" font-size="13" font-family="system-ui,sans-serif" text-anchor="middle" font-weight="600">Toller</text><text x="365.5" y="639" fill="#9fb0c0" font-size="11" font-family="system-ui,sans-serif" text-anchor="middle">43–53 cm · 17–23 kg</text><g transform="translate(525,484) scale(0.6645833333333333,0.7733333333333333)"><path d="M40,52 C36,43 41,30 54,30 C84,24 116,25 146,23 C160,22 170,20 180,19 C186,13 195,9 205,11 C214,12 218,17 220,24 C230,26 238,32 242,42 C244,49 236,51 230,49 C220,46 211,48 205,52 C198,56 194,64 192,77 L192,140 C192,147 181,147 181,140 L180,93 C159,98 137,98 117,95 C116,113 114,128 113,140 C113,147 102,147 102,140 L101,91 C84,89 66,86 54,79 C50,99 47,121 46,140 C46,147 35,147 35,140 L34,73 C28,67 28,58 40,52 Z" fill="#5e7bbf"></path></g><text x="604.75" y="622" fill="#e7edf3" font-size="13" font-family="system-ui,sans-serif" text-anchor="middle" font-weight="600">Mini am. ovčák</text><text x="604.75" y="639" fill="#9fb0c0" font-size="11" font-family="system-ui,sans-serif" text-anchor="middle">33–46 cm · 8–20 kg</text><g transform="translate(742.5,489.8) scale(0.7008333333333333,0.7346666666666667)"><path d="M40,52 C36,43 41,30 54,30 C84,24 116,25 146,23 C160,22 170,20 180,19 C186,13 195,9 205,11 C214,12 218,17 220,24 C230,26 238,32 242,42 C244,49 236,51 230,49 C220,46 211,48 205,52 C198,56 194,64 192,77 L192,140 C192,147 181,147 181,140 L180,93 C159,98 137,98 117,95 C116,113 114,128 113,140 C113,147 102,147 102,140 L101,91 C84,89 66,86 54,79 C50,99 47,121 46,140 C46,147 35,147 35,140 L34,73 C28,67 28,58 40,52 Z" fill="#e0913f"></path></g><text x="826.6" y="622" fill="#e7edf3" font-size="13" font-family="system-ui,sans-serif" text-anchor="middle" font-weight="600">Kooiker</text><text x="826.6" y="639" fill="#9fb0c0" font-size="11" font-family="system-ui,sans-serif" text-anchor="middle">36–41 cm · 9–11 kg</text><g transform="translate(968.6999999999999,495.6) scale(0.7008333333333333,0.696)"><path d="M40,52 C36,43 41,30 54,30 C84,24 116,25 146,23 C160,22 170,20 180,19 C186,13 195,9 205,11 C214,12 218,17 220,24 C230,26 238,32 242,42 C244,49 236,51 230,49 C220,46 211,48 205,52 C198,56 194,64 192,77 L192,140 C192,147 181,147 181,140 L180,93 C159,98 137,98 117,95 C116,113 114,128 113,140 C113,147 102,147 102,140 L101,91 C84,89 66,86 54,79 C50,99 47,121 46,140 C46,147 35,147 35,140 L34,73 C28,67 28,58 40,52 Z" fill="#b9883f"></path></g><text x="1052.8" y="622" fill="#e7edf3" font-size="13" font-family="system-ui,sans-serif" text-anchor="middle" font-weight="600">Sheltie</text><text x="1052.8" y="639" fill="#9fb0c0" font-size="11" font-family="system-ui,sans-serif" text-anchor="middle">33–37 cm · 5–10 kg</text><g transform="translate(1209,553.6) scale(0.5075,0.30933333333333335)"><path d="M40,52 C36,43 41,30 54,30 C84,24 116,25 146,23 C160,22 170,20 180,19 C186,13 195,9 205,11 C214,12 218,17 220,24 C230,26 238,32 242,42 C244,49 236,51 230,49 C220,46 211,48 205,52 C198,56 194,64 192,77 L192,140 C192,147 181,147 181,140 L180,93 C159,98 137,98 117,95 C116,113 114,128 113,140 C113,147 102,147 102,140 L101,91 C84,89 66,86 54,79 C50,99 47,121 46,140 C46,147 35,147 35,140 L34,73 C28,67 28,58 40,52 Z" fill="#7d5a3c"></path></g><text x="1269.9" y="622" fill="#e7edf3" font-size="13" font-family="system-ui,sans-serif" text-anchor="middle" font-weight="600">Mini jezevčík</text><text x="1269.9" y="639" fill="#9fb0c0" font-size="11" font-family="system-ui,sans-serif" text-anchor="middle">11–18 cm · 2,5–5,5 kg</text>
</svg>